<svg width="150" height="150" viewBox="0 0 150 150" fill="none" xmlns="http://www.w3.org/2000/svg">
<g clip-path="url(#clip0_12545_95953)">
<path d="M15.4173 88.0698C15.1869 88.0716 14.9595 88.0169 14.7551 87.9103C14.5507 87.8037 14.3754 87.6486 14.2447 87.4584C14.1141 87.2683 14.0319 87.049 14.0054 86.8196C13.979 86.5903 14.009 86.358 14.093 86.143L23.269 62.0109C23.3755 61.7404 23.562 61.509 23.8036 61.3477C24.0451 61.1864 24.3301 61.1029 24.6204 61.1085V61.1085C24.9065 61.1065 25.1864 61.1918 25.4229 61.353C25.6595 61.5142 25.8415 61.7437 25.9447 62.0109L33.8189 82.664L35.9992 76.9333C36.104 76.6671 36.2864 76.4387 36.5226 76.2778C36.7588 76.1168 37.0379 76.0308 37.3235 76.0308V76.0308C37.6094 76.0302 37.8887 76.1159 38.125 76.277C38.3613 76.438 38.5436 76.6668 38.6479 76.9333L40.8462 82.6685L48.7114 62.0109C48.8476 61.6555 49.1191 61.3688 49.4663 61.214C49.8135 61.0591 50.2079 61.0487 50.5628 61.1852C50.9176 61.3216 51.2038 61.5936 51.3584 61.9414C51.513 62.2892 51.5233 62.6843 51.3871 63.0398L42.1886 87.1538C42.0843 87.4203 41.902 87.6491 41.6657 87.8101C41.4294 87.9711 41.15 88.0569 40.8642 88.0563V88.0563C40.5784 88.0569 40.2991 87.9711 40.0628 87.8101C39.8264 87.6491 39.6442 87.4203 39.5398 87.1538L37.3416 81.4141L35.1703 87.1538C35.0665 87.4207 34.8844 87.6498 34.6479 87.8109C34.4115 87.972 34.1319 88.0576 33.8459 88.0563V88.0563C33.5556 88.0625 33.2703 87.9792 33.0286 87.8179C32.7869 87.6565 32.6005 87.4247 32.4945 87.1538L24.6024 66.5233L16.7462 87.1538C16.6432 87.4232 16.4611 87.655 16.2238 87.8185C15.9865 87.9821 15.7053 88.0697 15.4173 88.0698V88.0698Z" fill="#3BD0FE"/>
<path d="M71.6852 77.4336H69.4238V87.7308H71.6852V77.4336Z" fill="#2D3144"/>
<path d="M71.2356 73.3599C71.0251 73.2417 70.7878 73.1797 70.5464 73.1797C70.3051 73.1797 70.0677 73.2417 69.8572 73.3599C69.6512 73.4832 69.4818 73.6592 69.3662 73.8698C69.2367 74.0767 69.168 74.316 69.168 74.5602C69.168 74.8044 69.2367 75.0437 69.3662 75.2506C69.4765 75.4605 69.6477 75.632 69.8572 75.7424C70.0648 75.8692 70.3033 75.9362 70.5464 75.9362C70.7895 75.9362 71.028 75.8692 71.2356 75.7424C71.4459 75.6267 71.6216 75.4569 71.7447 75.2506C71.8598 75.0388 71.9201 74.8014 71.9201 74.5602C71.9201 74.319 71.8598 74.0817 71.7447 73.8698C71.618 73.6617 71.4434 73.4868 71.2356 73.3599V73.3599Z" fill="#2D3144"/>
<path d="M77.3517 79.1258L77.2526 77.4337H75.1895V87.7309H77.4418V82.5146C77.4418 80.8992 78.1851 79.541 79.9554 79.541C80.2694 79.5259 80.5833 79.5734 80.8789 79.6809L81.1356 77.4743C80.7962 77.3463 80.435 77.2865 80.0725 77.2983C79.4877 77.2917 78.9146 77.4627 78.4289 77.789C77.9431 78.1153 77.5676 78.5814 77.3517 79.1258Z" fill="#2D3144"/>
<path d="M63.6666 78.1587C62.7336 77.4658 61.6027 77.0924 60.4413 77.0938C59.5772 77.0949 58.7257 77.3007 57.9562 77.6945C57.1868 78.0883 56.5212 78.6589 56.014 79.3595C55.5067 80.0602 55.1721 80.8712 55.0376 81.7261C54.903 82.5811 54.9722 83.4558 55.2396 84.2789C55.507 85.1019 55.965 85.8499 56.5762 86.4618C57.1873 87.0736 57.9343 87.532 58.7561 87.7994C59.5779 88.0668 60.4512 88.1356 61.3046 88.0004C62.158 87.8651 62.9674 87.5295 63.6666 87.0209V87.7294H65.919V77.4322H63.6666V78.1587ZM60.4413 85.8297C59.8034 85.8297 59.1798 85.6402 58.6494 85.2852C58.119 84.9302 57.7056 84.4256 57.4614 83.8352C57.2173 83.2449 57.1534 82.5952 57.2779 81.9685C57.4024 81.3418 57.7095 80.7661 58.1606 80.3143C58.6117 79.8624 59.1864 79.5547 59.812 79.4301C60.4377 79.3054 61.0862 79.3694 61.6756 79.6139C62.2649 79.8584 62.7686 80.2726 63.123 80.8039C63.4775 81.3352 63.6666 81.9598 63.6666 82.5988C63.6607 83.4522 63.3184 84.2687 62.7143 84.8704C62.1102 85.4722 61.2932 85.8105 60.4413 85.8116V85.8297Z" fill="#2D3144"/>
<path d="M109.209 78.1542C108.392 77.5551 107.426 77.1944 106.417 77.1119C105.409 77.0295 104.397 77.2285 103.494 77.687C102.592 78.1455 101.834 78.8455 101.304 79.7093C100.774 80.5731 100.494 81.5671 100.494 82.5808C100.494 83.5945 100.774 84.5884 101.304 85.4523C101.834 86.3161 102.592 87.0161 103.494 87.4745C104.397 87.933 105.409 88.1321 106.417 88.0496C107.426 87.9672 108.392 87.6064 109.209 87.0074V87.7294H111.461V77.4322H109.209V78.1542ZM105.983 85.8252C105.345 85.8252 104.722 85.6357 104.191 85.2807C103.661 84.9257 103.248 84.4211 103.003 83.8307C102.759 83.2403 102.695 82.5907 102.82 81.964C102.944 81.3373 103.252 80.7616 103.703 80.3098C104.154 79.8579 104.728 79.5502 105.354 79.4255C105.98 79.3009 106.628 79.3649 107.218 79.6094C107.807 79.8539 108.311 80.268 108.665 80.7994C109.019 81.3307 109.209 81.9553 109.209 82.5943C109.204 83.4485 108.862 84.2661 108.258 84.8688C107.654 85.4715 106.836 85.8104 105.983 85.8116V85.8252Z" fill="#2D3144"/>
<path d="M118.718 85.7363L116.006 77.4336H113.637L117.002 87.7308H120.434L123.799 77.4336H121.43L118.718 85.7363Z" fill="#2D3144"/>
<path d="M94.6396 84.2892L92.3873 77.4395H90.1124L87.8601 84.2892L85.6077 77.4395H83.2383L86.6213 87.7321H89.0989L91.2521 81.1892L93.4008 87.7321H95.8784L99.2659 77.4395H96.8919L94.6396 84.2892Z" fill="#2D3144"/>
<path d="M135.999 82.583C135.995 81.274 135.523 80.0099 134.669 79.019C133.815 78.0282 132.635 77.3761 131.343 77.1806C130.051 76.9852 128.732 77.2592 127.624 77.9532C126.516 78.6472 125.693 79.7154 125.302 80.9647C124.912 82.2139 124.981 83.5618 125.497 84.7646C126.012 85.9674 126.94 86.9457 128.113 87.5227C129.286 88.0998 130.626 88.2374 131.892 87.9107C133.157 87.584 134.264 86.8147 135.013 85.7416V85.7416C135.262 85.3779 135.468 84.9855 135.625 84.5729H133.048C132.695 85.0188 132.229 85.3629 131.699 85.5702C131.17 85.7774 130.594 85.8405 130.032 85.7529C129.471 85.6654 128.942 85.4303 128.5 85.0717C128.058 84.713 127.719 84.2436 127.517 83.7111H136.017L135.999 82.583ZM127.517 81.4549C127.746 80.8373 128.159 80.3049 128.699 79.9289C129.239 79.5529 129.882 79.3514 130.539 79.3514C131.197 79.3514 131.839 79.5529 132.38 79.9289C132.92 80.3049 133.332 80.8373 133.562 81.4549H127.517Z" fill="#2D3144"/>
</g>
<defs>
<clipPath id="clip0_12545_95953">
<rect width="122" height="26.9613" fill="white" transform="translate(14 61.1055)"/>
</clipPath>
</defs>
</svg>
