<svg width="150" height="150" viewBox="0 0 150 150" fill="none" xmlns="http://www.w3.org/2000/svg">
<g clip-path="url(#clip0_12545_95908)">
<path d="M29.4395 77.2641H36.8488L33.1196 70.5605L29.4395 77.2641Z" fill="#C29742"/>
<path d="M63.4934 58.8418H23.7478C22.2267 58.8418 21 60.0832 21 61.6225V89.3306C21 90.8699 22.2267 92.1113 23.7478 92.1113H63.4443C64.9164 92.1113 66.1431 90.8699 66.1431 89.3802V61.5729C66.1922 60.0832 64.9655 58.8418 63.4934 58.8418ZM39.7933 82.627L37.9777 79.3001H28.3112L26.5448 82.627H23.895L31.9914 68.4751H34.3957L42.6883 82.627H39.7933ZM62.3648 79.3001C62.3648 80.5911 62.1195 81.4849 61.6288 81.9318C61.1381 82.3787 60.2549 82.627 58.93 82.627H50.2449C48.92 82.627 47.9877 82.3787 47.5461 81.9318C47.0554 81.4849 46.8101 80.5911 46.8101 79.3001V68.4751H49.4598V80.4918H59.6661V68.4751H62.3158L62.3648 79.3001Z" fill="#C29742"/>
<path d="M68.8438 82.6266V68.4746H80.0805C81.1109 68.4746 81.8469 68.6732 82.3376 69.1201C82.7792 69.567 83.0246 70.2622 83.0246 71.2057V74.3837C83.0246 75.3271 82.7792 76.0223 82.3376 76.4692C81.896 76.9161 81.1109 77.1147 80.0805 77.1147H78.2159L84.3985 82.6762H80.8656L75.2717 77.1147H71.4444V82.6762L68.8438 82.6266ZM78.9519 70.5602H71.4935V75.1285H78.9519C79.5407 75.1285 79.9333 75.0292 80.1295 74.8306C80.3258 74.6319 80.4239 74.2347 80.4239 73.6885V72.0002C80.4239 71.5036 80.3258 71.1064 80.0805 70.9078C79.8842 70.6595 79.4916 70.5602 78.9519 70.5602Z" fill="#C29742"/>
<path d="M91.7085 68.4746V80.4914H101.915V68.4746H104.565V79.2996C104.565 80.5907 104.319 81.4845 103.828 81.9314C103.338 82.3783 102.455 82.6266 101.13 82.6266H92.4446C91.1197 82.6266 90.1874 82.3783 89.7458 81.9314C89.2551 81.4845 89.0098 80.5907 89.0098 79.2996V68.4746H91.7085Z" fill="#C29742"/>
<path d="M113.153 71.1064C113.153 71.305 113.153 71.6029 113.202 71.9505C113.202 72.5464 113.251 72.894 113.251 73.0926V82.6266H111.092V68.4746H113.251L120.219 77.661L126.597 68.4746H129.051V82.6266H126.597V73.0926C126.597 72.745 126.597 72.3974 126.647 72.0995C126.696 71.7519 126.696 71.454 126.745 71.156C126.597 71.6029 126.45 72.0002 126.254 72.3478C126.107 72.6954 125.96 72.9436 125.812 73.1423L120.415 80.4417H119.728L114.134 73.1919C113.938 72.9436 113.741 72.6457 113.594 72.2981C113.447 71.9009 113.3 71.5036 113.153 71.1064Z" fill="#C29742"/>
</g>
<defs>
<clipPath id="clip0_12545_95908">
<rect width="108" height="33.3191" fill="white" transform="translate(21 58.8398)"/>
</clipPath>
</defs>
</svg>
