<svg width="150" height="150" viewBox="0 0 150 150" fill="none" xmlns="http://www.w3.org/2000/svg">
<g clip-path="url(#clip0_12545_95791)">
<path d="M24.6777 64.1133H47.6352L24.6777 85.4043V64.1133Z" fill="#00A0E4"/>
<path d="M36.1536 64.1133H24.6777V74.7566L36.1536 64.1133Z" fill="black"/>
<path d="M104.562 68.7031H109.964L106.983 80.8579H101.58L104.562 68.7031Z" fill="#00A0E4"/>
<path d="M85.3887 80.8579H90.2959L91.185 77.1833L93.8981 80.8579H99.8989L95.5747 74.6855L102.3 68.7031H96.6207L92.3212 72.426L93.2389 68.7031H88.1195L85.3887 80.8579Z" fill="#00A0E4"/>
<path d="M77.0332 80.8579L80.0181 68.7031H85.42L82.4352 80.8579H77.0332Z" fill="#00A0E4"/>
<path d="M109.553 80.8579H113.293L115.03 73.9234L117.217 80.8579H123.263L126.288 68.7031H122.299L120.599 75.4026L118.256 68.7031H112.562L109.553 80.8579Z" fill="#00A0E4"/>
<path d="M52.812 78.0254C53.556 77.9147 54.2456 77.571 54.782 77.0437C55.3183 76.5164 55.6736 75.8326 55.7969 75.0907C55.7969 75.0907 56.1443 72.9886 55.3524 72.2182C54.9884 71.9035 54.52 71.7361 54.039 71.7489H51.9655L50.4743 78.0254H52.812ZM44.6094 80.8559L47.6343 68.7012H55.7512C55.7512 68.7012 61.3399 69.1489 60.7562 74.8322C60.7403 74.9973 60.4711 79.8938 54.5121 80.8553L44.6094 80.8559Z" fill="#00A0E4"/>
<path d="M69.032 75.7601L68.4782 72.6483L66.7781 75.7601H69.032ZM65.2749 78.5449L63.8142 80.8579H60.2559L66.9997 68.7031H73.1676L75.3123 80.8579H69.9313L69.521 78.5449H65.2749Z" fill="#00A0E4"/>
</g>
<defs>
<clipPath id="clip0_12545_95791">
<rect width="101.612" height="21.2916" fill="white" transform="translate(24.6777 64.1133)"/>
</clipPath>
</defs>
</svg>
