<svg width="150" height="150" viewBox="0 0 150 150" fill="none" xmlns="http://www.w3.org/2000/svg">
<g clip-path="url(#clip0_12545_95918)">
<g clip-path="url(#clip1_12545_95918)">
<path d="M35.7051 65.0879C31.1904 65.0879 27.5371 68.6347 27.5371 73.018V80.7467V84.6343H31.3339C31.3818 83.2248 31.5254 81.9238 31.7328 80.7467C33.2962 72.0577 38.7043 69.3317 38.7043 69.3317C38.7043 69.3317 34.1257 74.7372 34.1257 80.7467H35.4977C40.0124 80.7467 43.6657 77.1998 43.6657 72.8166V65.0879H35.7051Z" fill="#00964D"/>
<path d="M70.355 67.7985C69.9562 67.7985 69.6212 67.6746 69.35 67.4113C69.0788 67.148 68.9512 66.8227 68.9512 66.4355C68.9512 66.0638 69.0788 65.7385 69.35 65.4907C69.6212 65.2274 69.9562 65.1035 70.355 65.1035C70.7379 65.1035 71.0729 65.2274 71.3282 65.4907C71.5994 65.754 71.727 66.0638 71.727 66.4355C71.727 66.8227 71.5994 67.148 71.3282 67.4113C71.057 67.6591 70.7379 67.7985 70.355 67.7985Z" fill="black"/>
<path d="M59.7614 74.9531C59.7614 75.743 59.6018 76.4865 59.2827 77.1989C58.9637 77.8959 58.533 78.5155 57.9906 79.0265C57.4482 79.5532 56.8101 79.9559 56.0762 80.2502C55.3424 80.5444 54.5606 80.6993 53.7311 80.6993C53.3322 80.6993 52.8537 80.6219 52.3113 80.4515C51.7688 80.2811 51.3222 80.0953 50.9712 79.8629V77.2299L51.019 77.2454C51.1627 77.4157 51.3381 77.5707 51.5455 77.7101C51.7529 77.8649 51.9762 77.9889 52.2315 78.0973C52.4867 78.2057 52.742 78.2986 52.9972 78.3606C53.2525 78.4226 53.5077 78.4535 53.7311 78.4535C54.2416 78.4535 54.7202 78.3606 55.1669 78.1747C55.6135 77.9889 55.9964 77.741 56.3155 77.4157C56.6346 77.0905 56.8898 76.7188 57.0812 76.3006C57.2727 75.8824 57.3684 75.4178 57.3684 74.9221C57.3684 74.4265 57.2727 73.9618 57.0812 73.5282C56.8898 73.0945 56.6186 72.7228 56.2836 72.3976C55.9485 72.0723 55.5498 71.8244 55.119 71.6386C54.6882 71.4527 54.2097 71.3598 53.7311 71.3598C53.2525 71.3598 52.7739 71.4527 52.3432 71.6386C51.9124 71.8244 51.5136 72.0723 51.1786 72.3976C50.8436 72.7228 50.5724 73.0945 50.3809 73.5282C50.1895 73.9618 50.0938 74.4265 50.0938 74.9221V85.3768H47.7168V74.9531C47.7168 74.1477 47.8763 73.3888 48.1953 72.6918C48.5144 71.9948 48.9451 71.3753 49.4876 70.8642C50.03 70.3376 50.6681 69.9349 51.4019 69.6406C52.1358 69.3463 52.9015 69.1914 53.7311 69.1914C54.5606 69.1914 55.3424 69.3463 56.0762 69.6406C56.8101 69.9349 57.4482 70.353 57.9906 70.8642C58.533 71.3908 58.9637 71.9948 59.2827 72.6918C59.6018 73.3888 59.7614 74.1477 59.7614 74.9531Z" fill="black"/>
<path d="M66.6535 71.3906C66.2706 71.3906 65.9037 71.4526 65.5847 71.592C65.2497 71.7314 64.9625 71.9172 64.7232 72.1496C64.4839 72.3819 64.2924 72.6762 64.1489 73.0014C64.0053 73.3267 63.9415 73.6829 63.9415 74.0546V80.6992H61.5645V69.1758H63.9415V70.6007C64.085 70.3994 64.2605 70.229 64.4679 70.0586C64.6753 69.8883 64.8987 69.7334 65.1379 69.594C65.3773 69.4546 65.6325 69.3616 65.9037 69.2842C66.1749 69.2068 66.4302 69.1758 66.6695 69.1758H67.3555V71.3906H66.6535Z" fill="black"/>
<path d="M69.1426 80.7147V69.1758H71.5196V80.7147H69.1426Z" fill="black"/>
<path d="M85.5583 80.6992V73.2338C85.5583 72.7072 85.3828 72.2735 85.0318 71.9172C84.6808 71.561 84.2341 71.3906 83.6918 71.3906C83.1494 71.3906 82.7027 71.561 82.3517 71.9172C82.0007 72.2735 81.8252 72.7072 81.8252 73.2338V80.7147H79.4482V73.2338C79.4482 72.7072 79.2728 72.2735 78.9058 71.9172C78.5389 71.561 78.0922 71.3906 77.5498 71.3906C77.0074 71.3906 76.5607 71.561 76.2098 71.9172C75.8588 72.2735 75.6833 72.7072 75.6833 73.2338V80.7147H73.3223V73.2957C73.3223 72.7381 73.4339 72.2115 73.6732 71.7159C73.8965 71.2203 74.2156 70.7711 74.5985 70.3994C74.9814 70.0122 75.4281 69.7179 75.9545 69.501C76.465 69.2842 77.0074 69.1758 77.5818 69.1758C78.2199 69.1758 78.842 69.3307 79.4163 69.6559C79.9907 69.9812 80.4055 70.3684 80.6447 70.8021C80.7723 70.5852 80.9319 70.3684 81.1552 70.1825C81.3626 69.9812 81.6178 69.8108 81.8891 69.6714C82.1602 69.5165 82.4634 69.4081 82.7824 69.3152C83.1015 69.2222 83.4046 69.1758 83.7236 69.1758C84.298 69.1758 84.8404 69.2842 85.3509 69.501C85.8614 69.7179 86.324 70.0122 86.7069 70.3994C87.1057 70.7866 87.4088 71.2203 87.6322 71.7159C87.8555 72.2115 87.9672 72.7381 87.9672 73.2957V80.6992H85.5583Z" fill="black"/>
<path d="M101.014 77.9579C100.647 78.5 100.201 78.9801 99.6738 79.3828C99.1473 79.7855 98.5411 80.1108 97.8711 80.3431C97.2011 80.5754 96.5151 80.6993 95.7972 80.6993C94.9676 80.6993 94.1859 80.5444 93.4362 80.2501C92.6863 79.9559 92.0482 79.5377 91.4899 79.0266C90.9315 78.5 90.5008 77.8959 90.1817 77.1989C89.8626 76.5019 89.7031 75.7585 89.7031 74.9531C89.7031 74.1477 89.8626 73.3888 90.1817 72.6918C90.5008 71.9948 90.9315 71.3753 91.4899 70.8642C92.0482 70.3376 92.6863 69.9349 93.4362 69.6406C94.17 69.3463 94.9676 69.1914 95.7972 69.1914C96.4194 69.1914 97.0096 69.2843 97.6158 69.4702C98.2061 69.6561 98.7645 69.9194 99.259 70.2601C99.7695 70.6009 100.217 70.9881 100.599 71.4372C100.982 71.8864 101.269 72.3665 101.445 72.8622L93.9466 76.8272L92.9416 74.8602L98.0625 72.1807C97.8233 71.9638 97.4882 71.778 97.0894 71.6231C96.6906 71.4682 96.2599 71.4063 95.7972 71.4063C95.2867 71.4063 94.8081 71.4992 94.3774 71.6851C93.9307 71.8709 93.5478 72.1187 93.2288 72.444C92.8937 72.7693 92.6385 73.1409 92.447 73.5746C92.2556 74.0083 92.1599 74.473 92.1599 74.9686C92.1599 75.4642 92.2556 75.9134 92.447 76.3471C92.6385 76.7653 92.8937 77.1525 93.2288 77.4622C93.5638 77.7875 93.9466 78.0353 94.3774 78.2212C94.8081 78.407 95.2867 78.5 95.7972 78.5C96.212 78.5 96.6108 78.438 96.9937 78.2986C97.3765 78.1592 97.7275 77.9733 98.0466 77.7256C98.3657 77.4777 98.6368 77.1835 98.8602 76.8427C99.0836 76.5019 99.243 76.1148 99.3388 75.6966L101.716 76.2077C101.62 76.8272 101.381 77.4158 101.014 77.9579Z" fill="black"/>
<path d="M108.275 71.3906C107.892 71.3906 107.525 71.4526 107.206 71.592C106.871 71.7314 106.583 71.9172 106.344 72.1496C106.105 72.3819 105.914 72.6762 105.77 73.0014C105.627 73.3267 105.562 73.6829 105.562 74.0546V80.7147H103.186V69.1758H105.546V70.6007C105.691 70.3994 105.866 70.229 106.073 70.0586C106.28 69.8883 106.504 69.7334 106.744 69.594C106.983 69.4546 107.238 69.3616 107.509 69.2842C107.78 69.2068 108.036 69.1758 108.275 69.1758H108.961V71.3906H108.275Z" fill="black"/>
<path d="M119.362 80.7151V74.9533C119.362 74.4578 119.266 73.9931 119.074 73.5594C118.883 73.1257 118.612 72.754 118.277 72.4288C117.942 72.1035 117.543 71.8557 117.113 71.6698C116.666 71.484 116.203 71.391 115.708 71.391C115.198 71.391 114.719 71.484 114.273 71.6698C113.826 71.8557 113.443 72.1035 113.124 72.4288C112.805 72.754 112.55 73.1257 112.343 73.5594C112.151 73.9931 112.056 74.4578 112.056 74.9533C112.056 75.449 112.151 75.8982 112.343 76.3318C112.534 76.75 112.789 77.1373 113.124 77.447C113.443 77.7723 113.826 78.0201 114.289 78.206C114.735 78.3918 115.214 78.4847 115.724 78.4847C115.948 78.4847 116.203 78.4538 116.474 78.3918C116.745 78.3299 117.001 78.2369 117.256 78.1285C117.511 78.0201 117.751 77.8807 117.958 77.7413C118.182 77.5864 118.357 77.4315 118.485 77.2457V79.8942C118.134 80.111 117.687 80.3124 117.129 80.4828C116.586 80.6531 116.108 80.7306 115.708 80.7306C114.879 80.7306 114.098 80.5757 113.364 80.2814C112.63 79.9871 111.992 79.5689 111.433 79.0578C110.891 78.5312 110.46 77.9272 110.141 77.2302C109.822 76.5332 109.662 75.7897 109.662 74.9844C109.662 74.1789 109.822 73.42 110.141 72.7231C110.46 72.0261 110.891 71.4065 111.433 70.8954C111.976 70.3688 112.614 69.9661 113.364 69.6718C114.098 69.3775 114.879 69.2227 115.708 69.2227C116.538 69.2227 117.32 69.3775 118.053 69.6718C118.787 69.9661 119.426 70.3843 119.968 70.8954C120.511 71.422 120.941 72.0261 121.261 72.7231C121.579 73.42 121.739 74.1789 121.739 74.9844V80.746H119.362V80.7151Z" fill="black"/>
</g>
</g>
<defs>
<clipPath id="clip0_12545_95918">
<rect width="150" height="150" fill="white"/>
</clipPath>
<clipPath id="clip1_12545_95918">
<rect width="94.2029" height="20.2899" fill="white" transform="translate(27.5371 65.0879)"/>
</clipPath>
</defs>
</svg>
