<svg width="32" height="32" fill="none" xmlns="http://www.w3.org/2000/svg"><path d="M0 0h32v24a8 8 0 01-8 8H0V0z" fill="#EF6461"/><path clip-rule="evenodd" d="M12.806 23.71h-2.335a2.181 2.181 0 01-2.181-2.181v-1.432c0-.578-.23-1.133-.639-1.542l-1.013-1.013a2.18 2.18 0 010-3.084l1.013-1.013a2.18 2.18 0 00.639-1.542v-1.432c0-1.204.976-2.181 2.181-2.181h1.432c.578 0 1.133-.23 1.542-.639l1.013-1.013a2.18 2.18 0 013.084 0l1.013 1.013c.409.409.964.639 1.542.639h1.432c1.204 0 2.181.976 2.181 2.181v1.432c0 .578.23 1.133.639 1.542l1.013 1.013a2.18 2.18 0 010 3.084l-1.013 1.013a2.182 2.182 0 00-.639 1.542v1.432a2.181 2.181 0 01-2.181 2.181h-1.432c-.578 0-1.133.23-1.542.639l-1.013 1.013a2.18 2.18 0 01-3.084 0l-1.652-1.652z" stroke="#fff" stroke-width="1.5" stroke-linecap="round" stroke-linejoin="round"/><path d="M13 19l6-6m-5.751 0a.25.25 0 10.002.5.25.25 0 00-.002-.5m5.5 5.5a.25.25 0 10.002.5.25.25 0 00-.002-.5" stroke="#fff" stroke-width="1.5" stroke-linecap="round" stroke-linejoin="round"/></svg>