<svg width="36" height="36" fill="none" xmlns="http://www.w3.org/2000/svg"><rect width="36" height="36" rx="18" fill="#EF6461"/><path clip-rule="evenodd" d="M14.806 25.71h-2.334a2.181 2.181 0 01-2.181-2.181v-1.432c0-.578-.23-1.133-.64-1.542L8.64 19.542a2.18 2.18 0 010-3.084l1.013-1.013a2.18 2.18 0 00.639-1.542v-1.432a2.18 2.18 0 012.18-2.181h1.432a2.18 2.18 0 001.542-.639l1.014-1.013a2.18 2.18 0 013.084 0l1.012 1.013c.41.409.965.639 1.543.639h1.431c1.204 0 2.181.976 2.181 2.181v1.432c0 .578.23 1.133.64 1.542l1.012 1.013a2.18 2.18 0 010 3.084l-1.012 1.013a2.182 2.182 0 00-.64 1.542v1.432a2.181 2.181 0 01-2.18 2.181h-1.433c-.578 0-1.133.23-1.542.639l-1.012 1.013a2.18 2.18 0 01-3.084 0l-1.652-1.652z" stroke="#fff" stroke-width="1.5" stroke-linecap="round" stroke-linejoin="round"/><path d="M15 21l6-6m-5.75 0a.25.25 0 10.002.5.25.25 0 00-.003-.5m5.501 5.5a.25.25 0 10.002.5.25.25 0 00-.003-.5" stroke="#fff" stroke-width="1.5" stroke-linecap="round" stroke-linejoin="round"/></svg>