<svg xmlns="http://www.w3.org/2000/svg" xmlns:xlink="http://www.w3.org/1999/xlink"><symbol id="close" viewBox="0 0 24 24">
<path d="M12 24C18.6274 24 24 18.6274 24 12C24 5.37258 18.6274 0 12 0C5.37258 0 0 5.37258 0 12C0 18.6274 5.37258 24 12 24Z" fill="#F6F6F6"/>
<path d="M7 8.179L10.72 11.899L7 15.619L8.179 16.798L13.078 11.899L8.179 7L7 8.179Z" fill="#888888"/>
<path d="M16.838 15.619L13.118 11.899L16.838 8.179L15.659 7L10.76 11.899L15.659 16.798L16.838 15.619Z" fill="#888888"/>
</symbol><symbol id="education" viewBox="0 0 28 28">
<path d="M10.791 14.5306V17.5608C10.791 18.2236 11.1655 18.8296 11.7584 19.126L12.4341 19.4639C13.4195 19.9565 14.5792 19.9565 15.5646 19.4639L16.2403 19.126C16.8332 18.8296 17.2077 18.2236 17.2077 17.5608V14.5306" stroke="currentColor" stroke-width="1.5" stroke-linecap="round" stroke-linejoin="round" fill="none"/>
<rect x="3.5" y="3.5" width="21" height="21" rx="5" stroke="currentColor" stroke-width="1.5" stroke-linecap="round" stroke-linejoin="round" fill="none"/>
<path fill-rule="evenodd" clip-rule="evenodd" d="M8.82929 13.5942L12.741 15.4647C13.5367 15.8452 14.4618 15.8452 15.2575 15.4647L19.1693 13.5942C19.5746 13.4003 19.8326 12.991 19.8326 12.5417C19.8326 12.0924 19.5746 11.6831 19.1693 11.4892L15.2575 9.61873C14.4618 9.23826 13.5367 9.23826 12.741 9.61873L8.82929 11.4892C8.42399 11.6831 8.16602 12.0924 8.16602 12.5417C8.16602 12.991 8.42399 13.4003 8.82929 13.5942Z" stroke="currentColor" stroke-width="1.5" stroke-linecap="round" stroke-linejoin="round" fill="none"/>
<path d="M19.8333 12.5341V15.1667" stroke="currentColor" stroke-width="1.5" stroke-linecap="round" stroke-linejoin="round"/>
</symbol><symbol id="filter" viewBox="0 0 24 24">
<path d="M14.5 13.5L19.707 8.293C19.895 8.105 20 7.851 20 7.586V5C20 4.448 19.552 4 19 4H5C4.448 4 4 4.448 4 5V7.586C4 7.851 4.105 8.106 4.293 8.293L9.5 13.5" stroke="currentColor" stroke-width="1.5" stroke-linecap="round" stroke-linejoin="round" fill="none"/>
<path d="M9.5 13.5V19.749C9.5 20.562 10.264 21.159 11.053 20.962L13.553 20.337C14.109 20.198 14.5 19.698 14.5 19.124V13.5" stroke="currentColor" stroke-width="1.5" stroke-linecap="round" stroke-linejoin="round" fill="none"/>
</symbol><symbol id="sale" viewBox="0 0 24 24">
<path fill-rule="evenodd" clip-rule="evenodd" d="M12.425 2.948L15.147 2.067C15.791 1.858 16.491 2.149 16.799 2.751L18.1 5.299C18.232 5.557 18.442 5.768 18.701 5.9L21.217 7.185C21.838 7.502 22.137 8.224 21.922 8.888L21.052 11.576C20.963 11.852 20.963 12.149 21.052 12.425L21.933 15.147C22.142 15.791 21.851 16.491 21.249 16.799L18.701 18.1C18.443 18.232 18.232 18.442 18.1 18.701L16.798 21.249C16.49 21.852 15.79 22.142 15.146 21.933L12.424 21.052C12.148 20.963 11.851 20.963 11.575 21.052L8.85298 21.933C8.20898 22.142 7.50898 21.851 7.20098 21.249L5.89998 18.701C5.76798 18.443 5.55798 18.232 5.29898 18.1L2.75098 16.798C2.14798 16.49 1.85798 15.79 2.06698 15.146L2.94798 12.424C3.03698 12.148 3.03698 11.851 2.94798 11.575L2.06698 8.854C1.85898 8.21 2.14898 7.509 2.75198 7.201L5.29898 5.9C5.55798 5.768 5.76798 5.558 5.89998 5.299L7.20198 2.751C7.50898 2.149 8.20998 1.859 8.85398 2.067L11.576 2.948C11.851 3.038 12.149 3.038 12.425 2.948V2.948Z" stroke="currentColor" stroke-width="1.5" stroke-linecap="round" stroke-linejoin="round" fill="none"/>
<path d="M9 15L15 9" stroke="currentColor" stroke-width="1.5" stroke-linecap="round" stroke-linejoin="round" fill="none"/>
<path d="M9.249 9C9.111 9 8.999 9.112 9 9.25C9 9.388 9.112 9.5 9.25 9.5C9.388 9.5 9.5 9.388 9.5 9.25C9.5 9.112 9.388 9 9.249 9" stroke="currentColor" stroke-width="1.5" stroke-linecap="round" stroke-linejoin="round" fill="none"/>
<path d="M14.749 14.5C14.611 14.5 14.499 14.612 14.5 14.75C14.5 14.888 14.612 15 14.75 15C14.888 15 15 14.888 15 14.75C15 14.612 14.888 14.5 14.749 14.5" stroke="currentColor" stroke-width="1.5" stroke-linecap="round" stroke-linejoin="round" fill="none"/>
</symbol><symbol id="truck" viewBox="0 0 25 24">
<path d="M15.5 7H19.823C20.232 7 20.6 7.249 20.751 7.629L22.357 11.643C22.451 11.879 22.5 12.131 22.5 12.385V18.333C22.5 18.885 22.052 19.333 21.5 19.333H19.669" stroke="currentColor" stroke-width="1.5" stroke-linecap="round" stroke-linejoin="round" fill="none"/>
<path d="M16.5 19.42H8.67001" stroke="currentColor" stroke-width="1.5" stroke-linecap="round" stroke-linejoin="round" fill="none"/>
<path d="M22.5 14H18.5V10H21.7" stroke="currentColor" stroke-width="1.5" stroke-linecap="round" stroke-linejoin="round" fill="none"/>
<path d="M13.056 5H14.5C15.052 5 15.5 5.448 15.5 6V15H2.5" stroke="currentColor" stroke-width="1.5" stroke-linecap="round" stroke-linejoin="round" fill="none"/>
<path d="M19.204 18.296C19.823 18.915 19.823 19.918 19.204 20.536C18.585 21.155 17.582 21.155 16.964 20.536C16.345 19.917 16.345 18.914 16.964 18.296C17.583 17.678 18.586 17.678 19.204 18.296" stroke="currentColor" stroke-width="1.5" stroke-linecap="round" stroke-linejoin="round" fill="none"/>
<path d="M8.204 18.296C8.823 18.915 8.823 19.918 8.204 20.536C7.585 21.155 6.582 21.155 5.964 20.536C5.346 19.917 5.345 18.914 5.964 18.296C6.583 17.678 7.585 17.678 8.204 18.296" stroke="currentColor" stroke-width="1.5" stroke-linecap="round" stroke-linejoin="round" fill="none"/>
<path d="M5.5 19.416H3.5C2.948 19.416 2.5 18.968 2.5 18.416V6C2.5 5.448 2.948 5 3.5 5H4.738" stroke="currentColor" stroke-width="1.5" stroke-linecap="round" stroke-linejoin="round" fill="none"/>
<path d="M8.89701 9.318C6.60001 9.318 4.73801 7.456 4.73801 5.159C4.73801 2.909 6.65101 0.998002 8.90001 1C11.196 1.002 13.055 2.863 13.055 5.159C13.055 7.455 11.194 9.318 8.89701 9.318" stroke="currentColor" stroke-width="1.5" fill="none"/>
<path d="M10.745 4.235L8.434 6.546L7.048 5.159" stroke="currentColor" stroke-width="1.5" stroke-linecap="round" stroke-linejoin="round" fill="none"/>
</symbol></svg>
