<svg xmlns="http://www.w3.org/2000/svg">
	<defs>
		<symbol id="whatsapp" viewBox="0 0 24 24">
			<g fill-rule="evenodd">
				<g>
					<path d="M0 24L1.68083 18.0367C0.599957 16.2025 0.030871 14.1155 0.030871 11.9716C0.030871 5.37044 5.40714 0 12.0155 0C18.6238 0 24 5.37044 24 11.9716C24 18.5728 18.6238 23.9432 12.0155 23.9432C9.95636 23.9432 7.94009 23.4167 6.15641 22.417L0 24ZM6.47114 20.239L6.83799 20.4628C8.39314 21.4111 10.1835 21.9124 12.0155 21.9124C17.5028 21.9124 21.967 17.453 21.967 11.9716C21.967 6.49023 17.5028 2.03078 12.0155 2.03078C6.52814 2.03078 2.06386 6.49023 2.06386 11.9716C2.06386 13.8815 2.60727 15.7362 3.6352 17.3352L3.88225 17.7195L2.91432 21.1536L6.47114 20.239Z"/>
					<path d="M8.64895 6.39971L7.8713 6.35736C7.62704 6.34405 7.38745 6.42558 7.20282 6.58579C6.82582 6.91282 6.223 7.54507 6.03785 8.36897C5.76174 9.59744 6.18844 11.1017 7.2928 12.606C8.39716 14.1103 10.4552 16.5171 14.0945 17.5451C15.2672 17.8763 16.1898 17.653 16.9015 17.1982C17.4653 16.838 17.8539 16.2598 17.9939 15.6062L18.1181 15.0269C18.1575 14.8428 18.0639 14.656 17.8927 14.5771L15.2645 13.367C15.0939 13.2885 14.8916 13.3381 14.7768 13.4867L13.745 14.8228C13.6671 14.9237 13.5337 14.9637 13.4132 14.9215C12.7066 14.6734 10.3398 13.6832 9.04109 11.1843C8.98477 11.0759 8.99878 10.9444 9.07867 10.8519L10.0647 9.71244C10.1655 9.59609 10.1909 9.43249 10.1304 9.29109L8.9975 6.64348C8.93719 6.50253 8.80203 6.40806 8.64895 6.39971Z"/>
				</g>
			</g>
		</symbol>
		<symbol id="telegram" viewBox="0 0 24 24">
			<g fill-rule="evenodd">
				<g>
					<path fill-rule="evenodd" clip-rule="evenodd" d="M0 12C0 18.6274 5.3726 24 12 24C18.6274 24 24 18.6274 24 12C24 5.3726 18.6274 0 12 0C5.3726 0 0 5.3726 0 12ZM9.8 17.5L10.0042 14.4411L10.004 14.441L15.5684 9.4195C15.8126 9.20275 15.5152 9.09705 15.191 9.29365L8.32365 13.6262L5.35735 12.7003C4.71675 12.5042 4.71215 12.064 5.50115 11.7476L17.0602 7.29045C17.5881 7.05075 18.0976 7.41725 17.8961 8.22525L15.9276 17.5016C15.7901 18.1608 15.3919 18.3184 14.84 18.0139L11.8413 15.7985L10.4 17.2C10.3954 17.2044 10.391 17.2088 10.3864 17.2132C10.2253 17.3701 10.0919 17.5 9.8 17.5Z"/>
				</g>
			</g>
		</symbol>
		<symbol id="vk" viewBox="0 0 22 13">
			<g fill-rule="evenodd">
				<g>
					<path d="M21.22 11.75L21.15 11.62C20.5839 10.7299 19.8898 9.92796 19.09 9.24C18.7847 8.95875 18.4943 8.66168 18.22 8.35C18.1157 8.23379 18.0463 8.0905 18.0198 7.9366C17.9932 7.7827 18.0107 7.62444 18.07 7.48C18.325 6.95418 18.6369 6.45789 19 6L19.7 5.09C20.94 3.44 21.47 2.39 21.31 1.93L21.24 1.82C21.1495 1.72974 21.035 1.66728 20.91 1.64C20.6824 1.59311 20.4476 1.59311 20.22 1.64H17.13C17.0581 1.61944 16.9819 1.61944 16.91 1.64H16.77H16.72H16.67C16.626 1.66846 16.5885 1.70595 16.56 1.75C16.5118 1.80589 16.4745 1.87034 16.45 1.94C16.1252 2.77321 15.7409 3.58197 15.3 4.36C15.03 4.8 14.79 5.19 14.57 5.51C14.4028 5.76453 14.2156 6.00529 14.01 6.23C13.8844 6.36503 13.7472 6.48883 13.6 6.6C13.48 6.7 13.38 6.74 13.32 6.72H13.14C13.0375 6.65406 12.9519 6.56501 12.89 6.46C12.8264 6.32784 12.7859 6.18581 12.77 6.04C12.77 5.87 12.77 5.72 12.77 5.6C12.77 5.48 12.77 5.31 12.77 5.08C12.77 4.85 12.77 4.71 12.77 4.63C12.77 4.36 12.77 4.06 12.77 3.75C12.77 3.44 12.77 3.17 12.77 2.99C12.77 2.81 12.77 2.6 12.77 2.4C12.7893 2.23724 12.7893 2.07276 12.77 1.91C12.7487 1.78907 12.7117 1.67142 12.66 1.56C12.6124 1.4545 12.5362 1.36443 12.44 1.3C12.3285 1.23388 12.2069 1.18658 12.08 1.16C11.6029 1.06303 11.1169 1.01611 10.63 1.02C9.76467 0.948108 8.89347 1.03625 8.06003 1.28C7.90432 1.35972 7.76518 1.46831 7.65003 1.6C7.52003 1.76 7.50003 1.84 7.60003 1.86C7.77476 1.87195 7.94532 1.91882 8.10163 1.99783C8.25793 2.07684 8.3968 2.18639 8.51003 2.32L8.58003 2.45C8.65023 2.60646 8.70062 2.77106 8.73003 2.94C8.78258 3.20027 8.81269 3.46458 8.82003 3.73C8.86034 4.17576 8.86034 4.62424 8.82003 5.07C8.82003 5.45 8.75003 5.74 8.72003 5.94C8.69803 6.11583 8.65088 6.28758 8.58003 6.45L8.45004 6.69H8.39003C8.29792 6.72674 8.19913 6.74377 8.10003 6.74C7.96766 6.72741 7.84218 6.67512 7.74003 6.59C7.57083 6.47603 7.41922 6.3379 7.29004 6.18C7.09717 5.94765 6.92328 5.70019 6.77003 5.44C6.54902 5.07831 6.3487 4.70438 6.17003 4.32L6.00003 4.15L5.56003 3.28C5.38003 2.89 5.21003 2.52 5.07003 2.16C5.0216 2.02197 4.93055 1.90291 4.81003 1.82H4.76004L4.58003 1.73C4.50513 1.69182 4.42372 1.66807 4.34003 1.66H1.39004C1.27984 1.64465 1.16759 1.65469 1.06187 1.68935C0.956148 1.72401 0.859748 1.78238 0.780035 1.86L0.730035 1.93C0.715639 1.98575 0.715639 2.04425 0.730035 2.1C0.733713 2.20038 0.757518 2.299 0.800035 2.39C1.23004 3.39 1.70003 4.39 2.20003 5.31C2.70003 6.23 3.15004 7.01 3.52004 7.58C3.89004 8.15 4.27003 8.7 4.66003 9.21C5.05003 9.72 5.30003 10.04 5.43004 10.21C5.52075 10.3251 5.61755 10.4353 5.72003 10.54L5.99003 10.8C6.22854 11.0211 6.48252 11.225 6.75003 11.41C7.10582 11.6682 7.47646 11.9053 7.86003 12.12C8.30037 12.3764 8.7752 12.5684 9.27003 12.69C9.77976 12.8367 10.3103 12.8975 10.84 12.87H12C12.2136 12.8654 12.4175 12.7796 12.57 12.63V12.58C12.6096 12.5193 12.6368 12.4513 12.65 12.38C12.6654 12.2839 12.6654 12.1861 12.65 12.09C12.6409 11.8082 12.6644 11.5264 12.72 11.25C12.7542 11.056 12.8148 10.8676 12.9 10.69C12.9636 10.5775 13.0408 10.4734 13.13 10.38C13.1858 10.3182 13.2497 10.2644 13.32 10.22H13.4C13.5079 10.1992 13.6192 10.2037 13.725 10.2332C13.8309 10.2627 13.9284 10.3164 14.01 10.39C14.2516 10.5725 14.4729 10.7803 14.67 11.01C14.87 11.26 15.12 11.54 15.4 11.85C15.6308 12.1007 15.8853 12.3284 16.16 12.53L16.37 12.66C16.5452 12.7646 16.7335 12.8453 16.93 12.9C17.1222 12.9687 17.3291 12.986 17.53 12.95H20.28C20.5402 12.9437 20.7919 12.8563 21 12.7C21.1254 12.6387 21.2222 12.5311 21.27 12.4C21.3001 12.2819 21.3001 12.1581 21.27 12.04C21.2641 11.9418 21.2473 11.8445 21.22 11.75Z"/>
				</g>
			</g>
		</symbol>
		<symbol id="facebook" viewBox="0 0 12 20">
			<g fill-rule="evenodd">
				<g>
					<path d="M10.74 0.529981H8.28002C7.66298 0.494964 7.04561 0.592749 6.4696 0.816734C5.89358 1.04072 5.37234 1.38569 4.94105 1.82835C4.50976 2.27102 4.17847 2.80107 3.96955 3.38271C3.76064 3.96436 3.67895 4.58407 3.73002 5.19998V7.34998H1.26002C1.20926 7.34997 1.15902 7.36012 1.11225 7.37983C1.06548 7.39955 1.02314 7.42844 0.987717 7.46479C0.952297 7.50115 0.924517 7.54423 0.906019 7.59149C0.887521 7.63875 0.878679 7.68924 0.880014 7.73998V10.85C0.879981 10.9517 0.919696 11.0494 0.990686 11.1223C1.06168 11.1951 1.15832 11.2374 1.26002 11.24H3.73002V19.1C3.73255 19.2026 3.77445 19.3004 3.84705 19.3729C3.91965 19.4455 4.01738 19.4874 4.12002 19.49H7.34002C7.44345 19.49 7.54265 19.4489 7.61579 19.3758C7.68893 19.3026 7.73002 19.2034 7.73002 19.1V11.23H10.62C10.7227 11.2274 10.8204 11.1855 10.893 11.1129C10.9656 11.0403 11.0075 10.9426 11.01 10.84V7.72998C11.0117 7.67738 11.0018 7.62504 10.9811 7.57666C10.9604 7.52829 10.9293 7.48504 10.89 7.44998C10.8176 7.37979 10.7209 7.34036 10.62 7.33998H7.73002V5.51998C7.73002 4.63998 7.94002 4.18998 9.08002 4.18998H10.74C10.8408 4.18998 10.9375 4.14995 11.0087 4.07868C11.08 4.00742 11.12 3.91076 11.12 3.80998V0.909981C11.12 0.809199 11.08 0.712544 11.0087 0.641281C10.9375 0.570017 10.8408 0.529981 10.74 0.529981Z"/>
				</g>
			</g>
		</symbol>
		<symbol id="youtube" viewBox="0 0 21 24">
			<g fill-rule="evenodd">
				<g>
					<path d="M19.909 12.1505C19.661 11.073 18.7796 10.2782 17.7188 10.1599C15.2073 9.87934 12.664 9.87801 10.1332 9.87934C7.60126 9.87801 5.05851 9.87934 2.54619 10.1599C1.4859 10.2785 0.605051 11.0733 0.357314 12.1505C0.00423482 13.6849 0 15.3597 0 16.9396C0 18.5195 2.30729e-08 20.1941 0.353079 21.7284C0.600817 22.8056 1.48166 23.6005 2.54249 23.719C5.05427 23.9998 7.59702 24.0009 10.1287 23.9999C12.6606 24.0012 15.2028 23.9998 17.7154 23.719C18.7756 23.6005 19.657 22.8056 19.9048 21.7284C20.2576 20.1941 20.2594 18.5195 20.2594 16.9396C20.2592 15.3595 20.2618 13.6849 19.909 12.1505ZM5.77869 13.3397H4.31238V21.1313H2.95035V13.3397H1.51078V12.0635H5.77869V13.3397ZM9.47808 21.1315H8.25289V20.3944C7.76615 20.9524 7.30402 21.2244 6.85381 21.2244C6.45918 21.2244 6.18762 21.0646 6.06507 20.7224C5.99837 20.518 5.95708 20.1946 5.95708 19.7176V14.3749H7.18121V19.3495C7.18121 19.6364 7.18121 19.7854 7.19233 19.8256C7.22171 20.0157 7.31461 20.112 7.47871 20.112C7.72433 20.112 7.98107 19.9228 8.25263 19.5387V14.3749H9.47781L9.47808 21.1315ZM14.1292 19.1036C14.1292 19.7285 14.0872 20.1787 14.0054 20.4651C13.8418 20.9677 13.5144 21.2244 13.0274 21.2244C12.5917 21.2244 12.1714 20.9825 11.762 20.477V21.1318H10.5378V12.0635H11.762V15.0249C12.1574 14.5382 12.5772 14.292 13.0274 14.292C13.5144 14.292 13.8421 14.5485 14.0054 15.0543C14.0877 15.3261 14.1292 15.7729 14.1292 16.4126V19.1036ZM18.7497 17.9763H16.3012V19.174C16.3012 19.7994 16.5058 20.1117 16.9266 20.1117C17.2281 20.1117 17.4036 19.9479 17.4734 19.6208C17.4848 19.5543 17.501 19.2822 17.501 18.7913H18.75V18.9699C18.75 19.3646 18.7349 19.6364 18.7238 19.7587C18.6827 20.0297 18.5864 20.2756 18.4379 20.4921C18.0989 20.9828 17.5965 21.2247 16.9571 21.2247C16.3165 21.2247 15.829 20.9942 15.4751 20.5328C15.2155 20.1946 15.0821 19.6621 15.0821 18.944V16.5775C15.0821 15.8552 15.2004 15.3269 15.4606 14.9855C15.8142 14.5231 16.3014 14.2928 16.9269 14.2928C17.5412 14.2928 18.0282 14.5231 18.3712 14.9855C18.6277 15.3269 18.7502 15.8552 18.7502 16.5775L18.7497 17.9763Z"/>
					<path d="M16.9159 15.3944C16.5067 15.3944 16.3015 15.7069 16.3015 16.3316V16.9567H17.5257V16.3316C17.5254 15.7069 17.3208 15.3944 16.9159 15.3944Z"/>
					<path d="M12.3723 15.3944C12.1706 15.3944 11.9663 15.4896 11.7617 15.6921V19.8102C11.966 20.0151 12.1706 20.112 12.3723 20.112C12.7254 20.112 12.9049 19.8102 12.9049 19.2001V16.3162C12.9049 15.7069 12.7254 15.3944 12.3723 15.3944Z"/>
					<path d="M13.0563 9.25653C13.5076 9.25653 13.9771 8.98232 14.4697 8.41803V9.16283H15.707V2.33443H14.4697V7.55333C14.1955 7.94082 13.9356 8.13245 13.6881 8.13245C13.5224 8.13245 13.425 8.03452 13.398 7.84262C13.3829 7.80213 13.3829 7.65153 13.3829 7.36171V2.33443H12.1495V7.73384C12.1495 8.21608 12.1908 8.54243 12.2591 8.74914C12.3835 9.09508 12.658 9.25653 13.0563 9.25653Z"/>
					<path d="M4.44235 5.45182V9.16285H5.81443V5.45182L7.46496 0H6.07752L5.14136 3.59828L4.16735 0H2.72354C3.01283 0.849348 3.31377 1.70293 3.60306 2.55307C4.04322 3.83093 4.31795 4.79436 4.44235 5.45182Z"/>
					<path d="M9.30393 9.25655C9.9238 9.25655 10.4055 9.02337 10.7472 8.55754C11.0069 8.21584 11.1313 7.67748 11.1313 6.95174V4.56065C11.1313 3.83067 11.0071 3.29708 10.7472 2.95221C10.4055 2.48505 9.92406 2.25187 9.30393 2.25187C8.68723 2.25187 8.20578 2.48505 7.86329 2.95221C7.60046 3.29708 7.47607 3.83067 7.47607 4.56065V6.95174C7.47607 7.67748 7.60046 8.21584 7.86329 8.55754C8.20552 9.02337 8.68723 9.25655 9.30393 9.25655ZM8.71343 4.31265C8.71343 3.68086 8.90506 3.3659 9.30393 3.3659C9.7028 3.3659 9.89389 3.6806 9.89389 4.31265V7.18492C9.89389 7.8167 9.7028 8.13273 9.30393 8.13273C8.90506 8.13273 8.71343 7.8167 8.71343 7.18492V4.31265Z"/>
				</g>
			</g>
		</symbol>
		<symbol id="instagram" viewBox="0 0 23 22">
			<g fill-rule="evenodd">
				<g>
					<path d="M21.9784 6.46806C21.9268 5.29912 21.7378 4.49548 21.467 3.79911C21.1877 3.05994 20.7579 2.39816 20.1948 1.84802C19.6447 1.28931 18.9785 0.855178 18.2479 0.580191C17.5475 0.309402 16.7481 0.12037 15.5792 0.0688306C14.4015 0.0129267 14.0276 0 11.0407 0C8.0538 0 7.67993 0.0129267 6.50663 0.0644657C5.33768 0.116005 4.53404 0.305205 3.83785 0.575827C3.09851 0.855178 2.43673 1.28495 1.88659 1.84802C1.32789 2.39816 0.893919 3.0643 0.618765 3.79492C0.347976 4.49548 0.158944 5.29475 0.107405 6.4637C0.0515009 7.64137 0.0385742 8.01524 0.0385742 11.0021C0.0385742 13.9891 0.0515009 14.3629 0.10304 15.5362C0.154579 16.7052 0.343779 17.5088 0.614568 18.2052C0.893919 18.9444 1.32789 19.6061 1.88659 20.1563C2.43673 20.715 3.10287 21.1491 3.83348 21.4241C4.53404 21.6949 5.33332 21.8839 6.50243 21.9355C7.67557 21.9872 8.0496 21.9999 11.0365 21.9999C14.0234 21.9999 14.3973 21.9872 15.5706 21.9355C16.7395 21.8839 17.5432 21.6949 18.2394 21.4241C19.7179 20.8525 20.8868 19.6835 21.4585 18.2052C21.7291 17.5046 21.9183 16.7052 21.9698 15.5362C22.0214 14.3629 22.0343 13.9891 22.0343 11.0021C22.0343 8.01524 22.0299 7.64137 21.9784 6.46806ZM19.9972 15.4503C19.9499 16.5247 19.7694 17.1049 19.619 17.4917C19.2493 18.4501 18.4887 19.2108 17.5302 19.5805C17.1435 19.7309 16.5591 19.9113 15.4888 19.9585C14.3285 20.0102 13.9804 20.023 11.0451 20.023C8.1097 20.023 7.75733 20.0102 6.60114 19.9585C5.52671 19.9113 4.94652 19.7309 4.55973 19.5805C4.08278 19.4042 3.64865 19.1248 3.29627 18.7595C2.93097 18.4028 2.65161 17.973 2.47534 17.4961C2.32492 17.1093 2.14445 16.5247 2.09728 15.4546C2.04557 14.2943 2.03281 13.9461 2.03281 11.0107C2.03281 8.07534 2.04557 7.72296 2.09728 6.56694C2.14445 5.49251 2.32492 4.91232 2.47534 4.52553C2.65161 4.04841 2.93097 3.61444 3.30064 3.2619C3.65721 2.89659 4.08698 2.61724 4.56409 2.44114C4.95089 2.29072 5.53544 2.11024 6.60551 2.0629C7.76589 2.01136 8.11407 1.99844 11.0493 1.99844C13.989 1.99844 14.337 2.01136 15.4932 2.0629C16.5676 2.11024 17.1478 2.29072 17.5346 2.44114C18.0116 2.61724 18.4457 2.89659 18.7981 3.2619C19.1634 3.61864 19.4427 4.04841 19.619 4.52553C19.7694 4.91232 19.9499 5.49671 19.9972 6.56694C20.0488 7.72732 20.0617 8.07534 20.0617 11.0107C20.0617 13.9461 20.0488 14.2899 19.9972 15.4503Z"/>
					<path d="M11.0407 5.35071C7.92062 5.35071 5.38916 7.88199 5.38916 11.0022C5.38916 14.1224 7.92062 16.6537 11.0407 16.6537C14.1609 16.6537 16.6922 14.1224 16.6922 11.0022C16.6922 7.88199 14.1609 5.35071 11.0407 5.35071ZM11.0407 14.6682C9.01653 14.6682 7.37467 13.0265 7.37467 11.0022C7.37467 8.97791 9.01653 7.33622 11.0407 7.33622C13.065 7.33622 14.7067 8.97791 14.7067 11.0022C14.7067 13.0265 13.065 14.6682 11.0407 14.6682Z"/>
					<path d="M18.2351 5.12723C18.2351 5.85583 17.6444 6.4466 16.9156 6.4466C16.187 6.4466 15.5962 5.85583 15.5962 5.12723C15.5962 4.39846 16.187 3.80786 16.9156 3.80786C17.6444 3.80786 18.2351 4.39846 18.2351 5.12723Z"/>
				</g>
			</g>
		</symbol>
		<symbol id="search" viewBox="0 0 18 19">
			<g fill-rule="evenodd">
				<g>
					<path fill-rule="evenodd" clip-rule="evenodd" d="M10.6628 3.60244C8.62388 1.56351 5.31812 1.56351 3.2792 3.60244C1.24027 5.64136 1.24027 8.94712 3.2792 10.986C5.31812 13.025 8.62388 13.025 10.6628 10.986C12.7017 8.94712 12.7017 5.64136 10.6628 3.60244ZM11.7235 2.54178C9.09875 -0.0829362 4.84325 -0.0829362 2.21854 2.54178C-0.406178 5.16649 -0.406178 9.42199 2.21854 12.0467C4.84325 14.6714 9.09875 14.6714 11.7235 12.0467C14.3482 9.42199 14.3482 5.16649 11.7235 2.54178Z"/>
					<path fill-rule="evenodd" clip-rule="evenodd" d="M10.6233 11.0159C10.9182 10.725 11.393 10.7282 11.6839 11.0231L17.5339 16.9531C17.8248 17.248 17.8216 17.7228 17.5267 18.0137C17.2319 18.3046 16.757 18.3014 16.4661 18.0065L10.6161 12.0765C10.3252 11.7816 10.3284 11.3068 10.6233 11.0159Z"/>
				</g>
			</g>
		</symbol>
		<symbol id="favorite" viewBox="0 0 21 18">
			<g fill-rule="evenodd">
				<g>
					<path fill-rule="evenodd" clip-rule="evenodd" d="M6.96992 1.75C4.32371 1.75 2.41992 4.2754 2.41992 6.76C2.41992 7.96848 2.89496 9.16658 3.6741 10.3138C4.45255 11.4599 5.50655 12.5132 6.58974 13.4148C7.67003 14.314 8.75861 15.0454 9.58723 15.5517C10.001 15.8046 10.3467 15.9993 10.5901 16.1291C10.6183 16.1441 10.6449 16.1582 10.6699 16.1713C10.6949 16.1582 10.7215 16.1441 10.7497 16.1291C10.9931 15.9993 11.3388 15.8046 11.7526 15.5517C12.5812 15.0454 13.6698 14.314 14.7501 13.4148C15.8333 12.5132 16.8873 11.4599 17.6657 10.3138C18.4449 9.16658 18.9199 7.96848 18.9199 6.76C18.9199 4.2754 17.0161 1.75 14.3699 1.75C12.8319 1.75 11.8332 2.50962 11.2379 3.19985C11.0954 3.36503 10.8881 3.46 10.6699 3.46C10.4518 3.46 10.2445 3.36503 10.102 3.19985C9.50667 2.50962 8.50794 1.75 6.96992 1.75ZM0.919922 6.76C0.919922 3.6846 3.27613 0.25 6.96992 0.25C8.63486 0.25 9.84764 0.915274 10.6699 1.64403C11.4922 0.915274 12.705 0.25 14.3699 0.25C18.0637 0.25 20.4199 3.6846 20.4199 6.76C20.4199 8.36652 19.79 9.85592 18.9066 11.1565C18.0225 12.4582 16.8565 13.6131 15.7097 14.5677C14.56 15.5247 13.4086 16.2977 12.5347 16.8317C12.0973 17.099 11.7261 17.3084 11.4555 17.4527C11.3207 17.5246 11.2072 17.5822 11.1207 17.6236C11.0785 17.6438 11.036 17.6633 10.9975 17.6793C10.9791 17.6869 10.9524 17.6976 10.9222 17.7077C10.9073 17.7127 10.8829 17.7205 10.8529 17.7278L10.8524 17.7279C10.8333 17.7326 10.7619 17.75 10.6699 17.75C10.5779 17.75 10.5065 17.7326 10.4874 17.7279L10.4869 17.7278C10.4569 17.7205 10.4325 17.7127 10.4177 17.7077C10.3875 17.6976 10.3607 17.6869 10.3424 17.6793C10.3039 17.6633 10.2614 17.6438 10.2191 17.6236C10.1326 17.5822 10.0191 17.5246 9.88439 17.4527C9.61373 17.3084 9.24256 17.099 8.80511 16.8317C7.93123 16.2977 6.77981 15.5247 5.6301 14.5677C4.4833 13.6131 3.31729 12.4582 2.43324 11.1565C1.54988 9.85592 0.919922 8.36652 0.919922 6.76Z"/>
				</g>
			</g>
		</symbol>
		<symbol id="compare" viewBox="0 0 20 19">
			<g fill-rule="evenodd">
				<g>
					<path fill-rule="evenodd" clip-rule="evenodd" d="M19.75 1C19.75 1.41421 19.4142 1.75 19 1.75L0.999998 1.75C0.585785 1.75 0.249998 1.41421 0.249998 0.999999C0.249998 0.585786 0.585785 0.249999 0.999998 0.249999L19 0.25C19.4142 0.25 19.75 0.585786 19.75 1Z"/>
					<path fill-rule="evenodd" clip-rule="evenodd" d="M19.75 6C19.75 6.41421 19.4142 6.75 19 6.75L0.999998 6.75C0.585785 6.75 0.249998 6.41421 0.249998 6C0.249998 5.58579 0.585785 5.25 0.999998 5.25L19 5.25C19.4142 5.25 19.75 5.58579 19.75 6Z"/>
					<path fill-rule="evenodd" clip-rule="evenodd" d="M19.75 11C19.75 11.4142 19.4142 11.75 19 11.75L0.999998 11.75C0.585785 11.75 0.249998 11.4142 0.249998 11C0.249998 10.5858 0.585785 10.25 0.999998 10.25L19 10.25C19.4142 10.25 19.75 10.5858 19.75 11Z"/>
					<path fill-rule="evenodd" clip-rule="evenodd" d="M11.75 16C11.75 16.4142 11.4142 16.75 11 16.75H1C0.585786 16.75 0.25 16.4142 0.25 16C0.25 15.5858 0.585786 15.25 1 15.25H11C11.4142 15.25 11.75 15.5858 11.75 16Z"/>
					<path fill-rule="evenodd" clip-rule="evenodd" d="M16.5 13.25C16.9142 13.25 17.25 13.5858 17.25 14L17.25 18C17.25 18.4142 16.9142 18.75 16.5 18.75C16.0858 18.75 15.75 18.4142 15.75 18L15.75 14C15.75 13.5858 16.0858 13.25 16.5 13.25Z"/>
					<path fill-rule="evenodd" clip-rule="evenodd" d="M19.25 16C19.25 16.4142 18.9142 16.75 18.5 16.75H14.5C14.0858 16.75 13.75 16.4142 13.75 16C13.75 15.5858 14.0858 15.25 14.5 15.25H18.5C18.9142 15.25 19.25 15.5858 19.25 16Z"/>
				</g>
			</g>
		</symbol>
		<symbol id="pin" fill="none" viewBox="0 0 16 20">
			<g fill-rule="evenodd">
				<g>
					<path fill-rule="evenodd" clip-rule="evenodd" d="M1 8.045V7.873C1 4.077 4.077 1 7.873 1V1C11.669 1 14.746 4.077 14.746 7.873V8.045C14.746 11.506 10.364 16.716 8.598 18.676C8.209 19.108 7.537 19.108 7.148 18.676C5.382 16.716 1 11.506 1 8.045Z" stroke="#6C7684" stroke-width="1.5" stroke-linecap="round" stroke-linejoin="round"/>
					<path d="M5.87299 7.95497C5.87299 9.05997 6.76799 9.95497 7.87299 9.95497V9.95497C8.97799 9.95497 9.87299 9.05997 9.87299 7.95497V7.91797C9.87299 6.81297 8.97799 5.91797 7.87299 5.91797V5.91797C6.76799 5.91797 5.87299 6.81297 5.87299 7.91797" stroke="#6C7684" stroke-width="1.5" stroke-linecap="round" stroke-linejoin="round"/>
				</g>
			</g>
		</symbol>
		<symbol id="user" viewBox="0 0 16 18">
			<g fill-rule="evenodd">
				<g>
					<path fill-rule="evenodd" clip-rule="evenodd" d="M5.39999 13.3408C3.39829 13.3408 1.74119 14.9199 1.74119 16.9996C1.74119 17.409 1.40934 17.7408 0.999989 17.7408C0.590636 17.7408 0.258789 17.409 0.258789 16.9996C0.258789 14.0793 2.60168 11.8584 5.39999 11.8584H10.5C13.4203 11.8584 15.6412 14.2013 15.6412 16.9996C15.6412 17.409 15.3093 17.7408 14.9 17.7408C14.4906 17.7408 14.1588 17.409 14.1588 16.9996C14.1588 14.9979 12.5797 13.3408 10.5 13.3408H5.39999Z"/>
					<path fill-rule="evenodd" clip-rule="evenodd" d="M10.4777 2.73837C9.06634 1.41796 6.92246 1.42055 5.51401 2.74615C4.15776 4.02262 4.18869 6.24369 5.54614 7.68598C6.82261 9.04222 9.04367 9.0113 10.486 7.65385C11.8595 6.36108 11.8859 4.155 10.4777 2.73837ZM11.5111 1.6511C9.52223 -0.21795 6.47378 -0.217033 4.48596 1.65385C2.44221 3.57738 2.61129 6.75631 4.45384 8.71402C6.37737 10.7578 9.5563 10.5887 11.514 8.74615C13.5369 6.84224 13.514 3.6563 11.5331 1.67241C11.5295 1.66881 11.5259 1.66524 11.5222 1.6617C11.5185 1.65812 11.5148 1.65459 11.5111 1.6511Z"/>
				</g>
			</g>
		</symbol>
		<symbol id="basket" viewBox="0 0 19 19">
			<g fill-rule="evenodd">
				<g>
					<path fill-rule="evenodd" clip-rule="evenodd" d="M0.623 1.60742C0.623 1.19321 0.958786 0.857422 1.373 0.857422H3.302C3.65349 0.857422 3.95784 1.10153 4.03412 1.44465L4.70112 4.44465C4.79102 4.84899 4.53612 5.24965 4.13178 5.33955C3.72743 5.42944 3.32678 5.17454 3.23688 4.7702L2.70044 2.35742H1.373C0.958786 2.35742 0.623 2.02164 0.623 1.60742Z"/>
					<path fill-rule="evenodd" clip-rule="evenodd" d="M3.38568 4.13601C3.52807 3.95981 3.74246 3.85742 3.969 3.85742H16.627C17.7422 3.85742 18.5709 4.88525 18.3385 5.97401L16.8363 12.9748C16.6631 13.7815 15.9504 14.3574 15.125 14.3574H6.708C5.8831 14.3574 5.17087 13.7812 4.99772 12.9749L3.2357 4.7648C3.18816 4.54331 3.24329 4.3122 3.38568 4.13601ZM4.89704 5.35742L6.46428 12.6599C6.48913 12.7757 6.5909 12.8574 6.708 12.8574H15.125C15.2436 12.8574 15.345 12.7752 15.3697 12.6599L16.8715 5.66084C16.8716 5.66071 16.8715 5.66096 16.8715 5.66084C16.9048 5.50373 16.7856 5.35742 16.627 5.35742H4.89704Z"/>
					<path fill-rule="evenodd" clip-rule="evenodd" d="M6.00001 17.1268C5.99692 16.5011 6.50501 16 7.12302 16C7.74393 16 8.24902 16.5025 8.24902 17.125C8.24902 17.7462 7.74523 18.25 7.12402 18.25C6.50531 18.25 5.99995 17.749 6.00001 17.1268ZM6.47258 17.1237L6.00003 17.1214C6.00002 17.1232 6.00001 17.125 6.00001 17.1268"/>
					<path fill-rule="evenodd" clip-rule="evenodd" d="M14 17.1268C13.9969 16.5011 14.505 16 15.123 16C15.7439 16 16.249 16.5025 16.249 17.125C16.249 17.7462 15.7452 18.25 15.124 18.25C14.5053 18.25 14 17.749 14 17.1268ZM14.4726 17.1237L14 17.1214C14 17.1232 14 17.125 14 17.1268"/>
				</g>
			</g>
		</symbol>
		<symbol id="clock" viewBox="0 0 20 20">
			<g fill-rule="evenodd">
				<g>
					<path fill-rule="evenodd" clip-rule="evenodd" d="M10 18C14.4183 18 18 14.4183 18 10C18 5.58172 14.4183 2 10 2C5.58172 2 2 5.58172 2 10C2 14.4183 5.58172 18 10 18ZM10 20C15.5228 20 20 15.5228 20 10C20 4.47715 15.5228 0 10 0C4.47715 0 0 4.47715 0 10C0 15.5228 4.47715 20 10 20Z"/>
					<path fill-rule="evenodd" clip-rule="evenodd" d="M9.68657 4.78906C10.1008 4.78906 10.4366 5.12485 10.4366 5.53906V10.2857L14.1392 12.5431C14.4929 12.7588 14.6048 13.2203 14.3892 13.5739C14.1735 13.9276 13.712 14.0395 13.3584 13.8239L9.29614 11.3472C9.07282 11.2111 8.93657 10.9684 8.93657 10.7068V5.53906C8.93657 5.12485 9.27235 4.78906 9.68657 4.78906Z"/>
				</g>
			</g>
		</symbol>
		<symbol id="phone" fill="none" viewBox="0 0 20 20">
			<g fill-rule="evenodd">
				<g>
					<path fill-rule="evenodd" clip-rule="evenodd" d="M8.85602 11.144C7.68602 9.97399 6.80402 8.66399 6.21802 7.33499C6.09402 7.05399 6.16702 6.72499 6.38402 6.50799L7.20302 5.68999C7.87402 5.01899 7.87402 4.06999 7.28802 3.48399L6.11402 2.30999C5.33302 1.52899 4.06702 1.52899 3.28602 2.30999L2.63402 2.96199C1.89302 3.70299 1.58402 4.77199 1.78402 5.83199C2.27802 8.44499 3.79602 11.306 6.24502 13.755C8.69402 16.204 11.555 17.722 14.168 18.216C15.228 18.416 16.297 18.107 17.038 17.366L17.689 16.715C18.47 15.934 18.47 14.668 17.689 13.887L16.516 12.714C15.93 12.128 14.98 12.128 14.395 12.714L13.492 13.618C13.275 13.835 12.946 13.908 12.665 13.784C11.336 13.197 10.026 12.314 8.85602 11.144Z" stroke="#6C7684" stroke-width="1.5" stroke-linecap="round" stroke-linejoin="round"/>
				</g>
			</g>
		</symbol>
		<symbol id="grid" viewBox="0 0 20 20">
			<g fill-rule="evenodd">
				<g>
					<path fill-rule="evenodd" clip-rule="evenodd" d="M3 1.75C2.30921 1.75 1.75 2.30921 1.75 3V5.75C1.75 6.44079 2.30921 7 3 7H5.75C6.44079 7 7 6.44079 7 5.75V3C7 2.30921 6.44079 1.75 5.75 1.75H3ZM0.25 3C0.25 1.48079 1.48079 0.25 3 0.25H5.75C7.26921 0.25 8.5 1.48079 8.5 3V5.75C8.5 7.26921 7.26921 8.5 5.75 8.5H3C1.48079 8.5 0.25 7.26921 0.25 5.75V3Z"/>
					<path fill-rule="evenodd" clip-rule="evenodd" d="M14.25 1.75C13.5592 1.75 13 2.30921 13 3V5.75C13 6.44079 13.5592 7 14.25 7H17C17.6908 7 18.25 6.44079 18.25 5.75V3C18.25 2.30921 17.6908 1.75 17 1.75H14.25ZM11.5 3C11.5 1.48079 12.7308 0.25 14.25 0.25H17C18.5192 0.25 19.75 1.48079 19.75 3V5.75C19.75 7.26921 18.5192 8.5 17 8.5H14.25C12.7308 8.5 11.5 7.26921 11.5 5.75V3Z"/>
					<path fill-rule="evenodd" clip-rule="evenodd" d="M3 13C2.30921 13 1.75 13.5592 1.75 14.25V17C1.75 17.6908 2.30921 18.25 3 18.25H5.75C6.44079 18.25 7 17.6908 7 17V14.25C7 13.5592 6.44079 13 5.75 13H3ZM0.25 14.25C0.25 12.7308 1.48079 11.5 3 11.5H5.75C7.26921 11.5 8.5 12.7308 8.5 14.25V17C8.5 18.5192 7.26921 19.75 5.75 19.75H3C1.48079 19.75 0.25 18.5192 0.25 17V14.25Z"/>
					<path fill-rule="evenodd" clip-rule="evenodd" d="M14.25 13C13.5592 13 13 13.5592 13 14.25V17C13 17.6908 13.5592 18.25 14.25 18.25H17C17.6908 18.25 18.25 17.6908 18.25 17V14.25C18.25 13.5592 17.6908 13 17 13H14.25ZM11.5 14.25C11.5 12.7308 12.7308 11.5 14.25 11.5H17C18.5192 11.5 19.75 12.7308 19.75 14.25V17C19.75 18.5192 18.5192 19.75 17 19.75H14.25C12.7308 19.75 11.5 18.5192 11.5 17V14.25Z"/>
				</g>
			</g>
		</symbol>
		<symbol id="grid-list" viewBox="0 0 20 14">
			<g fill-rule="evenodd">
				<g>
					<path fill-rule="evenodd" clip-rule="evenodd" d="M5.75 1C5.75 0.585786 6.08579 0.25 6.5 0.25H18.5C18.9142 0.25 19.25 0.585786 19.25 1C19.25 1.41421 18.9142 1.75 18.5 1.75H6.5C6.08579 1.75 5.75 1.41421 5.75 1Z" />
					<path fill-rule="evenodd" clip-rule="evenodd" d="M0.75 1C0.75 0.585786 1.08579 0.25 1.5 0.25H2.5C2.91421 0.25 3.25 0.585786 3.25 1C3.25 1.41421 2.91421 1.75 2.5 1.75H1.5C1.08579 1.75 0.75 1.41421 0.75 1Z"/>
					<path fill-rule="evenodd" clip-rule="evenodd" d="M0.75 7C0.75 6.58579 1.08579 6.25 1.5 6.25H2.5C2.91421 6.25 3.25 6.58579 3.25 7C3.25 7.41421 2.91421 7.75 2.5 7.75H1.5C1.08579 7.75 0.75 7.41421 0.75 7Z"/>
					<path fill-rule="evenodd" clip-rule="evenodd" d="M0.75 13C0.75 12.5858 1.08579 12.25 1.5 12.25H2.5C2.91421 12.25 3.25 12.5858 3.25 13C3.25 13.4142 2.91421 13.75 2.5 13.75H1.5C1.08579 13.75 0.75 13.4142 0.75 13Z"/>
					<path fill-rule="evenodd" clip-rule="evenodd" d="M5.75 7C5.75 6.58579 6.08579 6.25 6.5 6.25H18.5C18.9142 6.25 19.25 6.58579 19.25 7C19.25 7.41421 18.9142 7.75 18.5 7.75H6.5C6.08579 7.75 5.75 7.41421 5.75 7Z"/>
					<path fill-rule="evenodd" clip-rule="evenodd" d="M5.75 13C5.75 12.5858 6.08579 12.25 6.5 12.25H18.5C18.9142 12.25 19.25 12.5858 19.25 13C19.25 13.4142 18.9142 13.75 18.5 13.75H6.5C6.08579 13.75 5.75 13.4142 5.75 13Z"/>
				</g>
			</g>
		</symbol>
		<symbol id="close" viewBox="0 0 16 16">
			<g fill-rule="evenodd">
				<g>
					<path fill-rule="evenodd" clip-rule="evenodd" d="M0.46967 0.46967C0.762563 0.176777 1.23744 0.176777 1.53033 0.46967L15.5303 14.4697C15.8232 14.7626 15.8232 15.2374 15.5303 15.5303C15.2374 15.8232 14.7626 15.8232 14.4697 15.5303L0.46967 1.53033C0.176777 1.23744 0.176777 0.762563 0.46967 0.46967Z"/>
					<path fill-rule="evenodd" clip-rule="evenodd" d="M15.5303 0.46967C15.8232 0.762563 15.8232 1.23744 15.5303 1.53033L1.53033 15.5303C1.23744 15.8232 0.762563 15.8232 0.46967 15.5303C0.176777 15.2374 0.176777 14.7626 0.46967 14.4697L14.4697 0.46967C14.7626 0.176777 15.2374 0.176777 15.5303 0.46967Z"/>
				</g>
			</g>
		</symbol>
		<symbol id="arrow1" viewBox="0 0 16 12">
			<g fill-rule="evenodd">
				<g>
					<path fill-rule="evenodd" clip-rule="evenodd" d="M0.25 6C0.25 5.58579 0.585786 5.25 1 5.25H15C15.4142 5.25 15.75 5.58579 15.75 6C15.75 6.41421 15.4142 6.75 15 6.75H1C0.585786 6.75 0.25 6.41421 0.25 6Z"/>
					<path fill-rule="evenodd" clip-rule="evenodd" d="M6.53033 0.46967C6.82322 0.762563 6.82322 1.23744 6.53033 1.53033L1.53033 6.53033C1.23744 6.82322 0.762563 6.82322 0.46967 6.53033C0.176777 6.23744 0.176777 5.76256 0.46967 5.46967L5.46967 0.46967C5.76256 0.176777 6.23744 0.176777 6.53033 0.46967Z"/>
					<path fill-rule="evenodd" clip-rule="evenodd" d="M0.46967 5.46967C0.762563 5.17678 1.23744 5.17678 1.53033 5.46967L6.53033 10.4697C6.82322 10.7626 6.82322 11.2374 6.53033 11.5303C6.23744 11.8232 5.76256 11.8232 5.46967 11.5303L0.46967 6.53033C0.176777 6.23744 0.176777 5.76256 0.46967 5.46967Z"/>
				</g>
			</g>
		</symbol>
		<symbol id="check" viewBox="0 0 16 10">
			<g fill-rule="evenodd">
				<g>
					<path fill-rule="evenodd" clip-rule="evenodd" d="M0.96967 3.46967C1.26256 3.17678 1.73744 3.17678 2.03033 3.46967L7.03033 8.46967C7.32322 8.76256 7.32322 9.23744 7.03033 9.53033C6.73744 9.82322 6.26256 9.82322 5.96967 9.53033L0.96967 4.53033C0.676777 4.23744 0.676777 3.76256 0.96967 3.46967Z"/>
					<path fill-rule="evenodd" clip-rule="evenodd" d="M15.0303 0.46967C15.3232 0.762563 15.3232 1.23744 15.0303 1.53033L7.03033 9.53033C6.73744 9.82322 6.26256 9.82322 5.96967 9.53033L0.96967 4.53033C0.676777 4.23744 0.676777 3.76256 0.96967 3.46967C1.26256 3.17678 1.73744 3.17678 2.03033 3.46967L6.5 7.93934L13.9697 0.46967C14.2626 0.176777 14.7374 0.176777 15.0303 0.46967Z"/>
				</g>
			</g>
		</symbol>
		<symbol id="check2" viewBox="0 0 19 12">
			<g fill-rule="evenodd">
				<g>
					<path fill-rule="evenodd" clip-rule="evenodd" d="M4.46967 5.46967C4.76256 5.17678 5.23744 5.17678 5.53033 5.46967L10.5303 10.4697C10.8232 10.7626 10.8232 11.2374 10.5303 11.5303C10.2374 11.8232 9.76256 11.8232 9.46967 11.5303L4.46967 6.53033C4.17678 6.23744 4.17678 5.76256 4.46967 5.46967Z"/>
					<path fill-rule="evenodd" clip-rule="evenodd" d="M14.5303 0.46967C14.8232 0.762563 14.8232 1.23744 14.5303 1.53033L10.0303 6.03033C9.73744 6.32322 9.26256 6.32322 8.96967 6.03033C8.67678 5.73744 8.67678 5.26256 8.96967 4.96967L13.4697 0.46967C13.7626 0.176777 14.2374 0.176777 14.5303 0.46967Z"/>
					<path fill-rule="evenodd" clip-rule="evenodd" d="M0.46967 6.46967C0.762563 6.17678 1.23744 6.17678 1.53033 6.46967L5.53033 10.4697C5.82322 10.7626 5.82322 11.2374 5.53033 11.5303C5.23744 11.8232 4.76256 11.8232 4.46967 11.5303L0.46967 7.53033C0.176777 7.23744 0.176777 6.76256 0.46967 6.46967Z"/>
					<path fill-rule="evenodd" clip-rule="evenodd" d="M18.5303 2.46967C18.8232 2.76256 18.8232 3.23744 18.5303 3.53033L10.5303 11.5303C10.2374 11.8232 9.76256 11.8232 9.46967 11.5303L4.46967 6.53033C4.17678 6.23744 4.17678 5.76256 4.46967 5.46967C4.76256 5.17678 5.23744 5.17678 5.53033 5.46967L10 9.93934L17.4697 2.46967C17.7626 2.17678 18.2374 2.17678 18.5303 2.46967Z"/>
				</g>
			</g>
		</symbol>
		<symbol id="play-icon" viewBox="0 0 40 40">
			<g fill-rule="evenodd">
				<g>
					<path d="M20 0C8.97133 0 0 8.97219 0 20C0 31.0278 8.97133 40 20 40C31.0287 40 40 31.0278 40 20C40 8.97219 31.0287 0 20 0ZM20 38.3334C9.89094 38.3334 1.66664 30.1091 1.66664 20C1.66664 9.89094 9.89094 1.66664 20 1.66664C30.1091 1.66664 38.3334 9.89094 38.3334 20C38.3334 30.1091 30.1091 38.3334 20 38.3334Z"/>
					<path d="M27.9509 19.2988L16.2842 11.7988C16.0287 11.632 15.6983 11.623 15.4346 11.7679C15.166 11.9144 15 12.1944 15 12.4995V27.4995C15 27.8047 15.166 28.0847 15.4346 28.2312C15.5583 28.2988 15.6966 28.3329 15.8334 28.3329C15.9896 28.3329 16.1475 28.2889 16.2842 28.2002L27.9509 20.7002C28.1885 20.5473 28.3334 20.2827 28.3334 19.9995C28.3334 19.7163 28.1885 19.4519 27.9509 19.2988ZM16.6666 25.9728V14.0263L25.9587 19.9995L16.6666 25.9728Z"/>
				</g>
			</g>
		</symbol>
		<symbol id="question" viewBox="0 0 20 20">
			<g fill-rule="evenodd">
				<g>
					<path fill-rule="evenodd" clip-rule="evenodd" d="M7.25 8.00083C7.25 6.48159 8.48159 5.25 10.0008 5.25C11.5201 5.25 12.7517 6.48159 12.7517 8.00083C12.7517 9.26007 11.9056 10.3217 10.7508 10.6482V11.5023C10.7508 11.9165 10.415 12.2523 10.0008 12.2523C9.58662 12.2523 9.25083 11.9165 9.25083 11.5023V10.0017C9.25083 9.58745 9.58662 9.25167 10.0008 9.25167C10.6916 9.25167 11.2517 8.69165 11.2517 8.00083C11.2517 7.31002 10.6916 6.75 10.0008 6.75C9.31002 6.75 8.75 7.31002 8.75 8.00083C8.75 8.41505 8.41421 8.75083 8 8.75083C7.58579 8.75083 7.25 8.41505 7.25 8.00083Z"/>
					<path fill-rule="evenodd" clip-rule="evenodd" d="M10.0018 1.74805C5.44338 1.74805 1.74805 5.44338 1.74805 10.0018C1.74805 14.5602 5.44338 18.2555 10.0018 18.2555C14.5602 18.2555 18.2555 14.5602 18.2555 10.0018C18.2555 5.44338 14.5602 1.74805 10.0018 1.74805ZM0.248047 10.0018C0.248047 4.61495 4.61495 0.248047 10.0018 0.248047C15.3886 0.248047 19.7555 4.61495 19.7555 10.0018C19.7555 15.3886 15.3886 19.7555 10.0018 19.7555C4.61495 19.7555 0.248047 15.3886 0.248047 10.0018Z"/>
					<path fill-rule="evenodd" clip-rule="evenodd" d="M9.20117 14.0031C9.20117 13.5613 9.55935 13.2031 10.0012 13.2031C10.443 13.2031 10.8012 13.5613 10.8012 14.0031C10.8012 14.445 10.443 14.8032 10.0012 14.8032C9.55935 14.8032 9.20117 14.445 9.20117 14.0031Z"/>
				</g>
			</g>
		</symbol>
		<symbol id="document" viewBox="0 0 21 22">
			<g fill-rule="evenodd">
				<g>
					<path fill-rule="evenodd" clip-rule="evenodd" d="M15 11.25C12.6532 11.25 10.75 13.1532 10.75 15.5C10.75 17.8468 12.6532 19.75 15 19.75C17.3477 19.75 19.25 17.8469 19.25 15.5C19.25 13.1531 17.3477 11.25 15 11.25ZM15 21.25C18.1763 21.25 20.75 18.6751 20.75 15.5C20.75 12.3249 18.1763 9.75 15 9.75C11.8248 9.75 9.25 12.3248 9.25 15.5C9.25 18.6752 11.8248 21.25 15 21.25Z"/>
					<path fill-rule="evenodd" clip-rule="evenodd" d="M17.7523 13.8586C18.0452 14.1515 18.0452 14.6264 17.7523 14.9192L14.9743 17.6972C14.8337 17.8379 14.6429 17.9169 14.4439 17.9169C14.245 17.9169 14.0542 17.8378 13.9135 17.6971L12.2475 16.0301C11.9547 15.7371 11.9549 15.2622 12.2478 14.9694C12.5408 14.6766 13.0157 14.6768 13.3085 14.9697L14.4442 16.1061L16.6917 13.8586C16.9846 13.5657 17.4595 13.5657 17.7523 13.8586Z"/>
					<path fill-rule="evenodd" clip-rule="evenodd" d="M0.25 3.5C0.25 1.98079 1.48079 0.75 3 0.75H12.172C12.9011 0.75 13.6008 1.04018 14.1163 1.55567L16.9443 4.38367C17.4598 4.89916 17.75 5.59886 17.75 6.328V10.917C17.75 11.3312 17.4142 11.667 17 11.667C16.5858 11.667 16.25 11.3312 16.25 10.917V6.328C16.25 5.99714 16.1182 5.67884 15.8837 5.44433L13.0557 2.61633C12.8212 2.38182 12.5029 2.25 12.172 2.25H3C2.30921 2.25 1.75 2.80921 1.75 3.5V17.5C1.75 18.1908 2.30921 18.75 3 18.75H12.003C12.4172 18.75 12.753 19.0858 12.753 19.5C12.753 19.9142 12.4172 20.25 12.003 20.25H3C1.48079 20.25 0.25 19.0192 0.25 17.5V3.5Z"/>
					<path fill-rule="evenodd" clip-rule="evenodd" d="M12 0.75C12.4142 0.75 12.75 1.08579 12.75 1.5V5.5C12.75 5.63779 12.8622 5.75 13 5.75H17C17.4142 5.75 17.75 6.08579 17.75 6.5C17.75 6.91421 17.4142 7.25 17 7.25H13C12.0338 7.25 11.25 6.46621 11.25 5.5V1.5C11.25 1.08579 11.5858 0.75 12 0.75Z"/>
				</g>
			</g>
		</symbol>
		<symbol id="attention" viewBox="0 0 20 20">
			<g fill-rule="evenodd">
				<g>
					<path fill-rule="evenodd" clip-rule="evenodd" d="M10 1.75C5.44321 1.75 1.75 5.44321 1.75 10C1.75 14.5568 5.44321 18.25 10 18.25C14.5568 18.25 18.25 14.5568 18.25 10C18.25 5.44321 14.5568 1.75 10 1.75ZM10 19.75C4.61479 19.75 0.25 15.3852 0.25 10C0.25 4.61479 4.61479 0.25 10 0.25C15.3852 0.25 19.75 4.61479 19.75 10C19.75 15.3852 15.3852 19.75 10 19.75Z"/>
					<path fill-rule="evenodd" clip-rule="evenodd" d="M10 4.75C10.4142 4.75 10.75 5.08579 10.75 5.5V10.5C10.75 10.9142 10.4142 11.25 10 11.25C9.58579 11.25 9.25 10.9142 9.25 10.5V5.5C9.25 5.08579 9.58579 4.75 10 4.75Z"/>
					<path fill-rule="evenodd" clip-rule="evenodd" d="M9.00001 14.2527C8.99746 13.6965 9.44875 13.25 9.99901 13.25C10.5503 13.25 11 13.6958 11 14.25C11 14.8022 10.5522 15.25 10 15.25C9.4487 15.25 9.00148 14.8037 9.00001 14.2527ZM9.29286 14.2533L9.00003 14.2554C9.00002 14.2545 9.00001 14.2536 9.00001 14.2527C9.00001 14.2518 9.00001 14.2509 9.00001 14.25H9.29168C9.29207 14.2511 9.29247 14.2522 9.29286 14.2533ZM9.50001 14.2518L9.29286 14.2533C9.39675 14.5429 9.67369 14.75 9.99901 14.75C9.72634 14.75 9.50099 14.5291 9.50001 14.2518ZM9.50001 14.25H9.75001L9.50001 14.2518C9.50001 14.2512 9.50001 14.2506 9.50001 14.25ZM9.50001 14.25C9.50001 13.9741 9.72325 13.7505 9.99901 13.75C9.99934 13.75 9.99967 13.75 10 13.75C10.2744 13.75 10.4971 13.9709 10.5 14.2446C10.5 14.2464 10.5 14.2482 10.5 14.25C10.4991 14.5286 10.2729 14.7495 10 14.75M9.50001 14.25H9.29168Z"/>
				</g>
			</g>
		</symbol>
		<symbol id="download" viewBox="0 0 18 21">
			<g fill-rule="evenodd">
				<g>
					<path fill-rule="evenodd" clip-rule="evenodd" d="M9 0.75C9.41421 0.75 9.75 1.08579 9.75 1.5V15.5C9.75 15.9142 9.41421 16.25 9 16.25C8.58579 16.25 8.25 15.9142 8.25 15.5V1.5C8.25 1.08579 8.58579 0.75 9 0.75Z"/>
					<path fill-rule="evenodd" clip-rule="evenodd" d="M0.25 19.5C0.25 19.0858 0.585786 18.75 1 18.75H17C17.4142 18.75 17.75 19.0858 17.75 19.5C17.75 19.9142 17.4142 20.25 17 20.25H1C0.585786 20.25 0.25 19.9142 0.25 19.5Z"/>
					<path fill-rule="evenodd" clip-rule="evenodd" d="M3.46875 9.96962C3.76167 9.67675 4.23654 9.6768 4.52941 9.96972L8.99908 14.4403L13.4697 9.96967C13.7626 9.67678 14.2375 9.67678 14.5304 9.96967C14.8232 10.2626 14.8232 10.7374 14.5304 11.0303L9.52935 16.0313C9.38869 16.172 9.19791 16.251 8.99899 16.251C8.80006 16.251 8.60929 16.172 8.46864 16.0313L3.46864 11.0303C3.17578 10.7374 3.17582 10.2625 3.46875 9.96962Z"/>
				</g>
			</g>
		</symbol>
		<symbol id="shield" viewBox="0 0 20 20">
			<g fill-rule="evenodd">
				<g>
					<path fill-rule="evenodd" clip-rule="evenodd" d="M13.0303 7.96967C13.3232 8.26256 13.3232 8.73744 13.0303 9.03033L10.0303 12.0303C9.73744 12.3232 9.26256 12.3232 8.96967 12.0303L7.46967 10.5303C7.17678 10.2374 7.17678 9.76256 7.46967 9.46967C7.76256 9.17678 8.23744 9.17678 8.53033 9.46967L9.5 10.4393L11.9697 7.96967C12.2626 7.67678 12.7374 7.67678 13.0303 7.96967Z"/>
					<path fill-rule="evenodd" clip-rule="evenodd" d="M9.18014 0.37506C9.714 0.208313 10.286 0.208313 10.8199 0.37506L10.5964 1.09042L10.8199 0.375061L17.3199 2.40529C18.4681 2.76394 19.25 3.82728 19.25 5.03023V8.75363C19.25 13.4969 16.3072 17.7424 11.8656 19.407C11.8656 19.407 11.8656 19.407 11.8656 19.407L11.8412 19.4161L11.8412 19.4161C10.6544 19.8609 9.34671 19.8613 8.1596 19.4173L8.15955 19.4173L8.12953 19.406C3.69141 17.746 0.750004 13.5054 0.75 8.767V5.03017C0.75 3.82721 1.53188 2.76387 2.68014 2.40523L9.18014 0.37506ZM10.3727 1.80685C10.13 1.73105 9.87001 1.73105 9.62734 1.80685L9.40387 1.09136L9.62734 1.80685L3.12734 3.83702L2.90374 3.12112L3.12734 3.83702C2.6054 4.00003 2.25 4.48337 2.25 5.03017V8.767C2.25 12.8797 4.80298 16.5603 8.65503 18.0011L8.65508 18.0011L8.6851 18.0123C8.68511 18.0123 8.68513 18.0123 8.68515 18.0124C9.53305 18.3295 10.4671 18.3292 11.3148 18.0115C11.3148 18.0115 11.3148 18.0115 11.3148 18.0115L11.3391 18.0024L11.3392 18.0024C15.1952 16.5573 17.75 12.8715 17.75 8.75363V5.03023C17.75 4.48343 17.3946 4.0001 16.8727 3.83707L10.3727 1.80685Z"/>
				</g>
			</g>
		</symbol>
		<symbol id="gift" fill="none" viewBox="0 0 22 22">
			<g fill-rule="evenodd">
				<g>
					<path fill-rule="evenodd" clip-rule="evenodd" d="M11.6065 2.26949L13.0565 1.56049C13.7255 1.23349 14.5345 1.49549 14.8835 2.15449L15.6405 3.58049C15.8405 3.95649 16.2025 4.21949 16.6225 4.29349L18.2125 4.57249C18.9465 4.70149 19.4455 5.38849 19.3415 6.12649L19.1155 7.72449C19.0555 8.14649 19.1945 8.57249 19.4905 8.87849L20.6125 10.0385C21.1305 10.5735 21.1305 11.4235 20.6125 11.9595L19.4905 13.1195C19.1945 13.4255 19.0555 13.8515 19.1155 14.2735L19.3415 15.8715C19.4455 16.6095 18.9465 17.2965 18.2125 17.4255L16.6225 17.7045C16.2025 17.7785 15.8405 18.0415 15.6405 18.4175L14.8835 19.8435C14.5345 20.5015 13.7265 20.7645 13.0565 20.4375L11.6065 19.7285C11.2235 19.5415 10.7765 19.5415 10.3935 19.7285L8.9435 20.4375C8.2745 20.7645 7.4655 20.5025 7.1165 19.8435L6.3605 18.4175C6.1605 18.0415 5.7985 17.7785 5.3785 17.7045L3.7885 17.4255C3.0545 17.2965 2.5555 16.6095 2.6595 15.8715L2.8855 14.2735C2.9455 13.8515 2.8065 13.4255 2.5105 13.1195L1.3885 11.9595C0.8705 11.4245 0.8705 10.5745 1.3885 10.0385L2.5105 8.87849C2.8065 8.57249 2.9455 8.14649 2.8855 7.72449L2.6605 6.12649C2.5555 5.38949 3.0555 4.70149 3.7895 4.57349L5.3795 4.29449C5.7985 4.22049 6.1605 3.95749 6.3605 3.58149L7.1175 2.15549C7.4665 1.49749 8.2745 1.23449 8.9445 1.56149L10.3945 2.27049C10.7765 2.45749 11.2245 2.45749 11.6065 2.26949Z" stroke="white" stroke-width="1.5" stroke-linecap="round" stroke-linejoin="round"/>
					<path fill-rule="evenodd" clip-rule="evenodd" d="M14.375 14.999H7.625C7.073 14.999 6.625 14.551 6.625 13.999V10.375C6.625 9.823 7.073 9.375 7.625 9.375H14.374C14.926 9.375 15.374 9.823 15.374 10.375V13.999C15.374 14.551 14.926 14.999 14.375 14.999Z" stroke="white" stroke-width="1.5" stroke-linecap="round" stroke-linejoin="round"/>
					<path fill-rule="evenodd" clip-rule="evenodd" d="M11.067 9.38125C11.621 9.38125 12.764 9.20125 13.491 8.44225C14.026 7.88325 14.026 6.97825 13.491 6.41925C12.956 5.86025 12.088 5.86025 11.553 6.41925C10.734 7.27525 11.067 9.38125 11.067 9.38125V9.38125Z" stroke="white" stroke-width="1.5" stroke-linecap="round" stroke-linejoin="round"/>
					<path fill-rule="evenodd" clip-rule="evenodd" d="M10.9327 9.38125C10.3787 9.38125 9.23567 9.20125 8.50867 8.44225C7.97367 7.88325 7.97367 6.97825 8.50867 6.41925C9.04367 5.86025 9.91167 5.86025 10.4467 6.41925C11.2657 7.27525 10.9327 9.38125 10.9327 9.38125V9.38125Z" stroke="white" stroke-width="1.5" stroke-linecap="round" stroke-linejoin="round"/>
					<path d="M11 9.37891V14.9989" stroke="white" stroke-width="1.5" stroke-linecap="round" stroke-linejoin="round"/>
				</g>
			</g>
		</symbol>
		<symbol id="delivery" fill="none" viewBox="0 0 22 19">
			<g fill-rule="evenodd">
				<g>
					<path d="M17.7043 15.2963C18.3233 15.9153 18.3233 16.9183 17.7043 17.5363C17.0853 18.1553 16.0823 18.1553 15.4642 17.5363C14.8452 16.9173 14.8452 15.9143 15.4642 15.2963C16.0833 14.6773 17.0863 14.6773 17.7043 15.2963" stroke="#6C7684" stroke-width="1.5" stroke-linecap="round" stroke-linejoin="round"/>
					<path d="M6.70388 15.2959C7.32288 15.9149 7.32288 16.9179 6.70388 17.5359C6.08488 18.1549 5.08188 18.1549 4.46388 17.5359C3.84588 16.9169 3.84488 15.9139 4.46388 15.2959C5.08288 14.6779 6.08488 14.6769 6.70388 15.2959" stroke="#6C7684" stroke-width="1.5" stroke-linecap="round" stroke-linejoin="round"/>
					<path d="M9 1H13C13.552 1 14 1.448 14 2V12H1" stroke="#6C7684" stroke-width="1.5" stroke-linecap="round" stroke-linejoin="round"/>
					<path d="M4 16.416H2C1.448 16.416 1 15.968 1 15.416V10" stroke="#6C7684" stroke-width="1.5" stroke-linecap="round" stroke-linejoin="round"/>
					<path d="M14 4H18.323C18.732 4 19.1 4.249 19.251 4.629L20.857 8.643C20.951 8.879 21 9.131 21 9.385V15.333C21 15.885 20.552 16.333 20 16.333H18.169" stroke="#6C7684" stroke-width="1.5" stroke-linecap="round" stroke-linejoin="round"/>
					<path d="M14.9999 16.4199H7.16992" stroke="#6C7684" stroke-width="1.5" stroke-linecap="round" stroke-linejoin="round"/>
					<path d="M21 11H17V7H20.2" stroke="#6C7684" stroke-width="1.5" stroke-linecap="round" stroke-linejoin="round"/>
					<path d="M1 1H6" stroke="#6C7684" stroke-width="1.5" stroke-linecap="round" stroke-linejoin="round"/>
					<path d="M1 4H4" stroke="#6C7684" stroke-width="1.5" stroke-linecap="round" stroke-linejoin="round"/>
					<path d="M2 7H1" stroke="#6C7684" stroke-width="1.5" stroke-linecap="round" stroke-linejoin="round"/>
				</g>
			</g>
		</symbol>
	</defs>
</svg>
